<svg width="770" height="178" fill="none" xmlns="http://www.w3.org/2000/svg"><path d="M19.04 30.64H2.4V20.8h45.28v9.84h-16.8V80H19.04V30.64zm36.48-14.48H67.2v16.08l-.48 8.4a34.806 34.806 0 0 1 6.08-4.56c2.293-1.333 4.96-2 8-2 4.853 0 8.373 1.6 10.56 4.8 2.187 3.147 3.28 7.547 3.28 13.2V80H82.88V53.52c0-3.467-.507-5.893-1.52-7.28-.96-1.387-2.56-2.08-4.8-2.08-1.867 0-3.467.427-4.8 1.28-1.333.853-2.853 2.107-4.56 3.76V80H55.52V16.16zm69.812 64.96c-3.147 0-6.08-.533-8.8-1.6a21.357 21.357 0 0 1-7.04-4.56c-1.973-2.027-3.547-4.48-4.72-7.36-1.12-2.933-1.68-6.24-1.68-9.92 0-3.627.587-6.88 1.76-9.76 1.173-2.933 2.72-5.413 4.64-7.44 1.973-2.08 4.213-3.653 6.72-4.72 2.507-1.12 5.093-1.68 7.76-1.68 3.093 0 5.787.533 8.08 1.6 2.347 1.067 4.293 2.56 5.84 4.48 1.6 1.92 2.8 4.187 3.6 6.8.8 2.613 1.2 5.467 1.2 8.56 0 1.067-.053 2.107-.16 3.12-.107.96-.24 1.707-.4 2.24h-27.6c.48 3.68 1.813 6.48 4 8.4 2.24 1.867 5.04 2.8 8.4 2.8 1.867 0 3.6-.267 5.2-.8 1.653-.533 3.28-1.307 4.88-2.32l4 7.2c-2.24 1.547-4.72 2.773-7.44 3.68a26.874 26.874 0 0 1-8.24 1.28zm7.28-28c0-3.04-.693-5.44-2.08-7.2-1.387-1.813-3.52-2.72-6.4-2.72-2.347 0-4.453.853-6.32 2.56-1.867 1.653-3.013 4.107-3.44 7.36h18.24zM273.811 20.8h19.6c3.04 0 5.867.24 8.48.72 2.614.48 4.88 1.28 6.8 2.4 1.92 1.12 3.414 2.613 4.48 4.48 1.12 1.867 1.68 4.187 1.68 6.96 0 1.387-.186 2.747-.56 4.08a15.613 15.613 0 0 1-1.6 3.76 13.82 13.82 0 0 1-2.56 3.04 9.532 9.532 0 0 1-3.36 1.92v.4c3.2.747 5.84 2.267 7.92 4.56 2.134 2.293 3.2 5.44 3.2 9.44 0 2.987-.586 5.573-1.76 7.76-1.173 2.187-2.8 4-4.88 5.44-2.026 1.44-4.453 2.507-7.28 3.2-2.773.693-5.786 1.04-9.04 1.04h-21.12V20.8zm18.72 24.08c3.787 0 6.534-.693 8.24-2.08 1.707-1.387 2.56-3.28 2.56-5.68 0-2.613-.88-4.48-2.64-5.6-1.76-1.12-4.426-1.68-8-1.68h-7.04v15.04h6.88zm1.36 26c4.054 0 7.147-.72 9.28-2.16 2.134-1.493 3.2-3.787 3.2-6.88 0-2.88-1.066-4.96-3.2-6.24-2.08-1.28-5.173-1.92-9.28-1.92h-8.24v17.2h8.24zm45.893 10.24c-4.8 0-8.293-1.573-10.48-4.72-2.186-3.2-3.28-7.6-3.28-13.2v-28h11.76v26.48c0 3.52.48 5.973 1.44 7.36 1.014 1.333 2.614 2 4.8 2 1.867 0 3.467-.427 4.8-1.28 1.334-.853 2.774-2.293 4.32-4.32V35.2h11.76V80h-9.6l-.88-6.4h-.32c-1.92 2.293-4.026 4.133-6.32 5.52-2.24 1.333-4.906 2-8 2zm36.858-45.92h11.68V80h-11.68V35.2zm5.92-7.2c-2.027 0-3.707-.587-5.04-1.76-1.333-1.227-2-2.773-2-4.64 0-1.92.667-3.467 2-4.64 1.333-1.173 3.013-1.76 5.04-1.76s3.68.587 4.96 1.76c1.333 1.173 2 2.72 2 4.64 0 1.867-.667 3.413-2 4.64-1.28 1.173-2.933 1.76-4.96 1.76zm17.577 52V16.16h11.68V80h-11.68zm40.194 1.12c-2.773 0-5.307-.533-7.6-1.6-2.24-1.067-4.16-2.613-5.76-4.64-1.6-2.027-2.827-4.48-3.68-7.36-.853-2.88-1.28-6.16-1.28-9.84 0-3.68.507-6.96 1.52-9.84 1.067-2.933 2.48-5.413 4.24-7.44 1.76-2.027 3.76-3.573 6-4.64 2.293-1.12 4.64-1.68 7.04-1.68 2.56 0 4.693.453 6.4 1.36 1.707.853 3.36 2.027 4.96 3.52l-.48-7.04V16.16h11.76V80h-9.52l-.96-4.64h-.24c-1.653 1.6-3.547 2.96-5.68 4.08-2.133 1.12-4.373 1.68-6.72 1.68zm3.04-9.68a9.224 9.224 0 0 0 4.32-1.04c1.387-.693 2.72-1.893 4-3.6V47.12c-1.387-1.227-2.773-2.08-4.16-2.56-1.387-.533-2.773-.8-4.16-.8-1.28 0-2.48.293-3.6.88s-2.107 1.467-2.96 2.64c-.8 1.173-1.467 2.613-2 4.32-.48 1.707-.72 3.68-.72 5.92 0 4.693.8 8.187 2.4 10.48 1.6 2.293 3.893 3.44 6.88 3.44zm31.885-36.24h11.68V80h-11.68V35.2zm5.92-7.2c-2.027 0-3.707-.587-5.04-1.76-1.334-1.227-2-2.773-2-4.64 0-1.92.666-3.467 2-4.64 1.333-1.173 3.013-1.76 5.04-1.76 2.026 0 3.68.587 4.96 1.76 1.333 1.173 2 2.72 2 4.64 0 1.867-.667 3.413-2 4.64-1.28 1.173-2.934 1.76-4.96 1.76zm17.576 7.2h9.6l.8 5.92h.32a34.293 34.293 0 0 1 6.48-4.96c2.347-1.387 5.04-2.08 8.08-2.08 4.854 0 8.374 1.6 10.56 4.8 2.187 3.147 3.28 7.547 3.28 13.2V80h-11.76V53.52c0-3.467-.506-5.893-1.52-7.28-.96-1.387-2.56-2.08-4.8-2.08-1.866 0-3.466.427-4.8 1.28-1.333.853-2.853 2.107-4.56 3.76V80h-11.68V35.2zm66.21 64.24c-2.666 0-5.146-.24-7.44-.72-2.24-.427-4.213-1.12-5.92-2.08-1.653-.96-2.96-2.16-3.92-3.6s-1.44-3.147-1.44-5.12c0-1.867.56-3.6 1.68-5.2 1.12-1.547 2.694-2.907 4.72-4.08v-.4a10.153 10.153 0 0 1-2.96-2.88c-.746-1.227-1.12-2.773-1.12-4.64 0-1.707.48-3.28 1.44-4.72 1.014-1.493 2.187-2.72 3.52-3.68V62c-1.546-1.12-2.933-2.693-4.16-4.72-1.173-2.027-1.76-4.347-1.76-6.96 0-2.613.48-4.933 1.44-6.96 1.014-2.027 2.347-3.733 4-5.12a17.755 17.755 0 0 1 5.76-3.12c2.187-.693 4.48-1.04 6.88-1.04 1.227 0 2.427.107 3.6.32 1.174.213 2.214.48 3.12.8h16.16v8.64h-7.68c.587.747 1.067 1.733 1.44 2.96.427 1.173.64 2.453.64 3.84 0 2.507-.453 4.72-1.36 6.64-.906 1.867-2.133 3.44-3.68 4.72-1.546 1.28-3.386 2.24-5.52 2.88-2.08.64-4.32.96-6.72.96-.906 0-1.866-.08-2.88-.24-.96-.213-1.92-.48-2.88-.8-.64.533-1.12 1.093-1.44 1.68-.32.533-.48 1.253-.48 2.16 0 1.227.507 2.16 1.52 2.8 1.014.587 2.854.88 5.52.88h7.6c5.44 0 9.574.88 12.4 2.64 2.827 1.76 4.24 4.613 4.24 8.56 0 2.24-.56 4.32-1.68 6.24-1.12 1.973-2.746 3.68-4.88 5.12-2.08 1.44-4.64 2.56-7.68 3.36-2.986.8-6.346 1.2-10.08 1.2zm.72-40.88c1.974 0 3.627-.693 4.96-2.08 1.334-1.44 2-3.493 2-6.16 0-2.667-.666-4.693-2-6.08-1.28-1.44-2.933-2.16-4.96-2.16-2.026 0-3.706.72-5.04 2.16-1.333 1.387-2 3.413-2 6.08 0 2.667.667 4.72 2 6.16 1.387 1.387 3.067 2.08 5.04 2.08zm1.04 33.44c3.36 0 6.08-.64 8.16-1.92 2.134-1.28 3.2-2.8 3.2-4.56 0-1.6-.64-2.667-1.92-3.2-1.28-.533-3.12-.8-5.52-.8h-5.44c-1.386 0-2.586-.053-3.6-.16-.96-.107-1.84-.267-2.64-.48-1.973 1.6-2.96 3.333-2.96 5.2s.96 3.307 2.88 4.32c1.92 1.067 4.534 1.6 7.84 1.6zm64.18 6h-11.6l6.24-17.76-17.36-45.04h11.84l7.12 20.8a107.117 107.117 0 0 1 1.92 6.24c.586 2.08 1.2 4.213 1.84 6.4h.4c.533-2.08 1.066-4.187 1.6-6.32a1008.3 1008.3 0 0 1 1.6-6.32l6.16-20.8h11.28l-15.52 46.08-5.52 16.72zm46.417-16.88c-2.826 0-5.546-.533-8.16-1.6a20.904 20.904 0 0 1-6.8-4.56c-1.973-2.027-3.573-4.48-4.8-7.36-1.173-2.933-1.76-6.24-1.76-9.92 0-3.733.587-7.067 1.76-10 1.227-2.933 2.827-5.387 4.8-7.36a20.32 20.32 0 0 1 6.8-4.64 21.397 21.397 0 0 1 8.16-1.6c2.774 0 5.467.533 8.08 1.6a20.102 20.102 0 0 1 6.88 4.64c1.974 1.973 3.547 4.427 4.72 7.36 1.227 2.933 1.84 6.267 1.84 10 0 3.68-.613 6.987-1.84 9.92-1.173 2.88-2.746 5.333-4.72 7.36a20.67 20.67 0 0 1-6.88 4.56 21.187 21.187 0 0 1-8.08 1.6zm0-9.6c3.04 0 5.387-1.253 7.04-3.76 1.654-2.507 2.48-5.867 2.48-10.08 0-4.267-.826-7.653-2.48-10.16-1.653-2.56-4-3.84-7.04-3.84s-5.386 1.28-7.04 3.84c-1.653 2.507-2.48 5.893-2.48 10.16 0 4.213.827 7.573 2.48 10.08 1.654 2.507 4 3.76 7.04 3.76zm43.838 9.6c-4.8 0-8.293-1.573-10.48-4.72-2.186-3.2-3.28-7.6-3.28-13.2v-28h11.76v26.48c0 3.52.48 5.973 1.44 7.36 1.014 1.333 2.614 2 4.8 2 1.867 0 3.467-.427 4.8-1.28 1.334-.853 2.774-2.293 4.32-4.32V35.2h11.76V80h-9.6l-.88-6.4h-.32c-1.92 2.293-4.026 4.133-6.32 5.52-2.24 1.333-4.906 2-8 2zM2.16 115.2h11.76l4.88 22.16c.427 2.187.8 4.347 1.12 6.48.32 2.133.693 4.32 1.12 6.56h.32c.427-2.24.853-4.427 1.28-6.56a87.875 87.875 0 0 1 1.52-6.48l5.36-22.16H40l5.6 22.16a159.057 159.057 0 0 1 1.44 6.48c.427 2.133.88 4.32 1.36 6.56h.4c.427-2.24.8-4.427 1.12-6.56.32-2.133.693-4.293 1.12-6.48l4.88-22.16H66.8L55.76 160H41.92l-4.72-19.52c-.48-2.133-.933-4.24-1.36-6.32-.373-2.08-.773-4.32-1.2-6.72h-.4c-.427 2.4-.827 4.667-1.2 6.8-.373 2.08-.8 4.16-1.28 6.24L27.2 160H13.76l-11.6-44.8zm91.142 45.92c-2.826 0-5.546-.533-8.16-1.6a20.906 20.906 0 0 1-6.8-4.56c-1.973-2.027-3.573-4.48-4.8-7.36-1.173-2.933-1.76-6.24-1.76-9.92 0-3.733.587-7.067 1.76-10 1.227-2.933 2.827-5.387 4.8-7.36a20.314 20.314 0 0 1 6.8-4.64 21.386 21.386 0 0 1 8.16-1.6c2.774 0 5.467.533 8.08 1.6a20.102 20.102 0 0 1 6.88 4.64c1.974 1.973 3.547 4.427 4.72 7.36 1.227 2.933 1.84 6.267 1.84 10 0 3.68-.613 6.987-1.84 9.92-1.173 2.88-2.746 5.333-4.72 7.36a20.68 20.68 0 0 1-6.88 4.56 21.181 21.181 0 0 1-8.08 1.6zm0-9.6c3.04 0 5.387-1.253 7.04-3.76 1.654-2.507 2.48-5.867 2.48-10.08 0-4.267-.826-7.653-2.48-10.16-1.653-2.56-4-3.84-7.04-3.84s-5.386 1.28-7.04 3.84c-1.653 2.507-2.48 5.893-2.48 10.16 0 4.213.827 7.573 2.48 10.08 1.654 2.507 4 3.76 7.04 3.76zm43.839 9.6c-4.8 0-8.294-1.573-10.48-4.72-2.187-3.2-3.28-7.6-3.28-13.2v-28h11.76v26.48c0 3.52.48 5.973 1.44 7.36 1.013 1.333 2.613 2 4.8 2 1.866 0 3.466-.427 4.8-1.28 1.333-.853 2.773-2.293 4.32-4.32V115.2h11.76V160h-9.6l-.88-6.4h-.32c-1.92 2.293-4.027 4.133-6.32 5.52-2.24 1.333-4.907 2-8 2zm36.857-1.12V96.16h11.68V160h-11.68zm40.195 1.12c-2.774 0-5.307-.533-7.6-1.6-2.24-1.067-4.16-2.613-5.76-4.64-1.6-2.027-2.827-4.48-3.68-7.36-.854-2.88-1.28-6.16-1.28-9.84 0-3.68.506-6.96 1.52-9.84 1.066-2.933 2.48-5.413 4.24-7.44 1.76-2.027 3.76-3.573 6-4.64 2.293-1.12 4.64-1.68 7.04-1.68 2.56 0 4.693.453 6.4 1.36 1.706.853 3.36 2.027 4.96 3.52l-.48-7.04V96.16h11.76V160h-9.52l-.96-4.64h-.24a24.48 24.48 0 0 1-5.68 4.08c-2.134 1.12-4.374 1.68-6.72 1.68zm3.04-9.68a9.233 9.233 0 0 0 4.32-1.04c1.386-.693 2.72-1.893 4-3.6v-19.68c-1.387-1.227-2.774-2.08-4.16-2.56-1.387-.533-2.774-.8-4.16-.8-1.28 0-2.48.293-3.6.88s-2.107 1.467-2.96 2.64c-.8 1.173-1.467 2.613-2 4.32-.48 1.707-.72 3.68-.72 5.92 0 4.693.8 8.187 2.4 10.48 1.6 2.293 3.893 3.44 6.88 3.44zm49.209-36.24h9.6l.8 4.64h.32c1.867-1.6 3.92-2.96 6.16-4.08 2.293-1.12 4.64-1.68 7.04-1.68 2.773 0 5.227.56 7.36 1.68 2.187 1.067 4.027 2.587 5.52 4.56 1.547 1.973 2.72 4.373 3.52 7.2.8 2.827 1.2 5.947 1.2 9.36 0 3.84-.533 7.28-1.6 10.32-1.067 2.987-2.48 5.52-4.24 7.6-1.76 2.027-3.787 3.6-6.08 4.72-2.293 1.067-4.667 1.6-7.12 1.6-1.973 0-3.893-.427-5.76-1.28s-3.653-2.053-5.36-3.6l.32 7.36v13.6h-11.68v-62zm19.84 36.24c2.72 0 4.987-1.173 6.8-3.52 1.867-2.347 2.8-5.973 2.8-10.88 0-4.32-.72-7.6-2.16-9.84-1.387-2.293-3.627-3.44-6.72-3.44-1.547 0-3.04.4-4.48 1.2-1.387.747-2.853 1.893-4.4 3.44v19.68c1.44 1.227 2.853 2.107 4.24 2.64 1.387.48 2.693.72 3.92.72zm30.844-36.24h9.6l.8 7.92h.32c1.654-2.933 3.6-5.173 5.84-6.72 2.24-1.547 4.534-2.32 6.88-2.32 1.227 0 2.24.107 3.04.32.8.16 1.547.373 2.24.64l-2.08 10.16a11.458 11.458 0 0 0-2.24-.56 15.895 15.895 0 0 0-2.4-.16c-1.76 0-3.6.667-5.52 2-1.92 1.28-3.52 3.547-4.8 6.8V160h-11.68v-44.8zm53.484 45.92c-3.147 0-6.08-.533-8.8-1.6a21.367 21.367 0 0 1-7.04-4.56c-1.973-2.027-3.547-4.48-4.72-7.36-1.12-2.933-1.68-6.24-1.68-9.92 0-3.627.587-6.88 1.76-9.76 1.173-2.933 2.72-5.413 4.64-7.44 1.973-2.08 4.213-3.653 6.72-4.72 2.507-1.12 5.093-1.68 7.76-1.68 3.093 0 5.787.533 8.08 1.6 2.347 1.067 4.293 2.56 5.84 4.48 1.6 1.92 2.8 4.187 3.6 6.8.8 2.613 1.2 5.467 1.2 8.56 0 1.067-.053 2.107-.16 3.12-.107.96-.24 1.707-.4 2.24h-27.6c.48 3.68 1.813 6.48 4 8.4 2.24 1.867 5.04 2.8 8.4 2.8 1.867 0 3.6-.267 5.2-.8 1.653-.533 3.28-1.307 4.88-2.32l4 7.2c-2.24 1.547-4.72 2.773-7.44 3.68a26.883 26.883 0 0 1-8.24 1.28zm7.28-28c0-3.04-.693-5.44-2.08-7.2-1.387-1.813-3.52-2.72-6.4-2.72-2.347 0-4.453.853-6.32 2.56-1.867 1.653-3.013 4.107-3.44 7.36h18.24zm42.884-27.84a15.69 15.69 0 0 0-2.4-.64 9.005 9.005 0 0 0-2.32-.32c-1.76 0-3.12.56-4.08 1.68-.906 1.067-1.36 2.853-1.36 5.36v3.84h8.4v9.28h-8.4V160h-11.76v-35.52h-6v-8.72l6-.48v-3.68c0-2.347.267-4.533.8-6.56.587-2.027 1.494-3.76 2.72-5.2 1.28-1.493 2.907-2.667 4.88-3.52 1.974-.853 4.374-1.28 7.2-1.28 1.707 0 3.28.16 4.72.48 1.494.32 2.747.693 3.76 1.12l-2.16 8.64zm24.486 55.84c-3.147 0-6.08-.533-8.8-1.6a21.367 21.367 0 0 1-7.04-4.56c-1.973-2.027-3.547-4.48-4.72-7.36-1.12-2.933-1.68-6.24-1.68-9.92 0-3.627.587-6.88 1.76-9.76 1.173-2.933 2.72-5.413 4.64-7.44 1.973-2.08 4.213-3.653 6.72-4.72 2.507-1.12 5.093-1.68 7.76-1.68 3.093 0 5.787.533 8.08 1.6 2.347 1.067 4.293 2.56 5.84 4.48 1.6 1.92 2.8 4.187 3.6 6.8.8 2.613 1.2 5.467 1.2 8.56 0 1.067-.053 2.107-.16 3.12-.107.96-.24 1.707-.4 2.24h-27.6c.48 3.68 1.813 6.48 4 8.4 2.24 1.867 5.04 2.8 8.4 2.8 1.867 0 3.6-.267 5.2-.8 1.653-.533 3.28-1.307 4.88-2.32l4 7.2c-2.24 1.547-4.72 2.773-7.44 3.68a26.883 26.883 0 0 1-8.24 1.28zm7.28-28c0-3.04-.693-5.44-2.08-7.2-1.387-1.813-3.52-2.72-6.4-2.72-2.347 0-4.453.853-6.32 2.56-1.867 1.653-3.013 4.107-3.44 7.36h18.24zm18.964-17.92h9.6l.8 7.92h.32c1.654-2.933 3.6-5.173 5.84-6.72 2.24-1.547 4.534-2.32 6.88-2.32 1.227 0 2.24.107 3.04.32.8.16 1.547.373 2.24.64l-2.08 10.16a11.458 11.458 0 0 0-2.24-.56 15.895 15.895 0 0 0-2.4-.16c-1.76 0-3.6.667-5.52 2-1.92 1.28-3.52 3.547-4.8 6.8V160h-11.68v-44.8zM198.449 47.393V34.26l3.79-3.046V.463h-5.429L178 16.279l1.895 3.415c3.928-.43 11.179-2.317 13.402-3.167v56.918l-13.402 3.888v6.16h22.344V50.438l-3.782-3.039-.008-.007z" fill="#fff"/><path d="m226.07 77.325-13.286-3.843V.462h-8.526V32.02l-3.79 3.038v11.53l3.79 3.038v33.859h21.812v-6.16zM235.564 8.704c-.109-1.34-.984-2.105-2.762-2.105-1.722 0-2.488.656-2.515 1.586-.027 1.011.902 1.586 2.734 1.968l1.641.383c4.265.902 6.152 2.98 6.18 6.016-.028 3.883-3.008 6.07-8.012 6.07-5.113 0-8.422-2.242-8.477-7.11h4.977c.082 1.833 1.367 2.817 3.418 2.817 1.777 0 2.734-.738 2.762-1.777-.028-.957-.821-1.504-3.036-1.996l-1.996-.438c-3.472-.766-5.605-2.488-5.605-5.55-.028-3.747 3.281-6.262 7.929-6.262 4.758 0 7.739 2.543 7.766 6.398h-5.004zm5.996-1.914V2.58h17.063v4.21h-5.961v15.586h-5.141V6.79h-5.961z" fill="#fff"/></svg>