<svg width="319" height="64" fill="none" xmlns="http://www.w3.org/2000/svg"><path d="M15.4 49.56c-1.973 0-3.773-.347-5.4-1.04a12.099 12.099 0 0 1-4.16-3.08c-1.173-1.36-2.08-2.987-2.72-4.88-.64-1.92-.96-4.08-.96-6.48 0-2.4.32-4.547.96-6.44.64-1.893 1.547-3.493 2.72-4.8A11.446 11.446 0 0 1 10 19.88c1.627-.693 3.427-1.04 5.4-1.04 1.947 0 3.733.347 5.36 1.04a11.786 11.786 0 0 1 4.2 3c1.173 1.28 2.08 2.867 2.72 4.76.64 1.893.96 4.04.96 6.44 0 2.4-.32 4.56-.96 6.48-.64 1.893-1.547 3.52-2.72 4.88a11.999 11.999 0 0 1-4.2 3.08c-1.627.693-3.413 1.04-5.36 1.04zm0-5.12c1.093 0 2.08-.24 2.96-.72.907-.48 1.667-1.173 2.28-2.08.64-.907 1.12-2 1.44-3.28.347-1.28.52-2.707.52-4.28 0-3.2-.653-5.693-1.96-7.48-1.28-1.787-3.027-2.68-5.24-2.68s-3.973.893-5.28 2.68c-1.28 1.787-1.92 4.28-1.92 7.48 0 1.573.16 3 .48 4.28.347 1.28.827 2.373 1.44 3.28.64.907 1.4 1.6 2.28 2.08.907.48 1.907.72 3 .72zM33.861 19.4h6.04l8.6 15.76 2.96 6.4h.2c-.16-1.547-.333-3.24-.52-5.08-.16-1.84-.24-3.6-.24-5.28V19.4h5.6V49h-6l-8.56-15.84-3-6.36h-.2c.134 1.6.28 3.293.44 5.08a50.44 50.44 0 0 1 .28 5.24V49h-5.6V19.4zm29.401 0h5.92v24.64h12V49h-17.92V19.4zm23.776 18.76-8.88-18.76h6.28l2.96 7.2c.427 1.12.84 2.213 1.24 3.28.427 1.04.867 2.133 1.32 3.28h.16c.454-1.147.894-2.24 1.32-3.28.453-1.067.894-2.16 1.32-3.28l2.96-7.2h6.16l-8.92 18.76V49h-5.92V38.16zM119 35.092c0 7.58 5.66 15.183 15.33 15.183s9.266-2.901 9.266-2.901l-1.745-4.098s-16.777 5.538-16.777-7.782 10.394-12.187 15.128-11.16l2.053-3.991S120.128 13.376 119 35.092zM176.319 19.284v30.303h6.181V25.372l12.106 24.215h8.585V19.284h-5.829v24.14l-12.766-24.14h-8.277zM232.979 19.284h-23.458v5.22h7.926v25.083h6.436V24.504h6.383l2.713-5.22zM244.319 36.67h10.83v-5.443h-9.021l-1.809 2.181V24.43h10.234l2.181-5.072h-12.415v-.074h-6.234V49.587h16.468l2.181-5.072h-12.415V36.67zM156.457 36.67h10.83v-5.443h-9.021l-1.809 2.181V24.43h10.234l2.181-5.072h-12.415v-.074h-6.234V49.587h16.468l2.181-5.072h-12.415V36.67zM282.5 44.515l-5.032-7.994c3.053-.868 6.66-3.039 6.66-8.396 0-9.307-8.99-8.841-8.99-8.841h-11.064v30.303h6.235V37.103h1.202l7.723 12.484h5.553l2.596-5.072h-4.894.011zm-12.191-11.636v-8.45h4.223S279 24.303 279 28.19c0 3.885-3.5 4.68-4.34 4.68h-4.341l-.01.01zM295.255 18.44l7.532-6.724h2.543V23.67s-2.075.233-2.075 3.77c0 3.536 2.075 3.674 2.075 3.674v12.483h-9.522v-1.525l5.979-2.52V17.54l-2.053.9h-4.479z" fill="#fff"/><path d="M306.457 11.716h3.085v27.836l5.309 2.52v1.525h-8.394V30.489s-2.096-.466-2.096-3.134c0-2.668.979-2.89 2.096-3.388v-12.25z" fill="#fff"/></svg>