<svg width="32" height="32" fill="none" xmlns="http://www.w3.org/2000/svg"><g clip-path="url(#a)" stroke="#fff" stroke-width="2" stroke-linecap="round" stroke-linejoin="round"><path d="M10.667 20a2.667 2.667 0 0 0-5.334 0v2.667a2.667 2.667 0 1 0 5.334 0V20zM26.667 20a2.667 2.667 0 0 0-5.334 0v2.667a2.667 2.667 0 1 0 5.334 0V20z"/><path d="M5.333 20v-4a10.667 10.667 0 0 1 21.334 0v4M24 25.333c0 1.061-.843 2.079-2.343 2.829S18.122 29.333 16 29.333"/></g><defs><clipPath id="a"><path fill="#fff" d="M0 0h32v32H0z"/></clipPath></defs></svg>