<svg width="880" height="166" fill="none" xmlns="http://www.w3.org/2000/svg"><path d="M19.04 30.64H2.4V20.8h45.28v9.84h-16.8V80H19.04V30.64zm36.48-14.48H67.2v16.08l-.48 8.4a34.806 34.806 0 0 1 6.08-4.56c2.293-1.333 4.96-2 8-2 4.853 0 8.373 1.6 10.56 4.8 2.187 3.147 3.28 7.547 3.28 13.2V80H82.88V53.52c0-3.467-.507-5.893-1.52-7.28-.96-1.387-2.56-2.08-4.8-2.08-1.867 0-3.467.427-4.8 1.28-1.333.853-2.853 2.107-4.56 3.76V80H55.52V16.16zm69.812 64.96c-3.147 0-6.08-.533-8.8-1.6a21.357 21.357 0 0 1-7.04-4.56c-1.973-2.027-3.547-4.48-4.72-7.36-1.12-2.933-1.68-6.24-1.68-9.92 0-3.627.587-6.88 1.76-9.76 1.173-2.933 2.72-5.413 4.64-7.44 1.973-2.08 4.213-3.653 6.72-4.72 2.507-1.12 5.093-1.68 7.76-1.68 3.093 0 5.787.533 8.08 1.6 2.347 1.067 4.293 2.56 5.84 4.48 1.6 1.92 2.8 4.187 3.6 6.8.8 2.613 1.2 5.467 1.2 8.56 0 1.067-.053 2.107-.16 3.12-.107.96-.24 1.707-.4 2.24h-27.6c.48 3.68 1.813 6.48 4 8.4 2.24 1.867 5.04 2.8 8.4 2.8 1.867 0 3.6-.267 5.2-.8 1.653-.533 3.28-1.307 4.88-2.32l4 7.2c-2.24 1.547-4.72 2.773-7.44 3.68a26.874 26.874 0 0 1-8.24 1.28zm7.28-28c0-3.04-.693-5.44-2.08-7.2-1.387-1.813-3.52-2.72-6.4-2.72-2.347 0-4.453.853-6.32 2.56-1.867 1.653-3.013 4.107-3.44 7.36h18.24zM273.811 20.8h11.84V80h-11.84V20.8zm24.647 14.4h9.6l.8 6h.32a31.787 31.787 0 0 1 6.08-5.04c2.186-1.387 4.746-2.08 7.68-2.08 3.2 0 5.786.693 7.76 2.08 1.973 1.333 3.493 3.253 4.56 5.76 2.026-2.187 4.16-4.027 6.4-5.52 2.293-1.547 4.906-2.32 7.84-2.32 4.8 0 8.32 1.6 10.56 4.8 2.24 3.147 3.36 7.547 3.36 13.2V80h-11.76V53.52c0-3.467-.507-5.893-1.52-7.28-1.014-1.387-2.587-2.08-4.72-2.08-2.56 0-5.44 1.68-8.64 5.04V80h-11.76V53.52c0-3.467-.507-5.893-1.52-7.28-1.014-1.387-2.587-2.08-4.72-2.08-2.56 0-5.44 1.68-8.64 5.04V80h-11.68V35.2zm76.309 0h9.6l.8 4.64h.32c1.867-1.6 3.92-2.96 6.16-4.08 2.293-1.12 4.64-1.68 7.04-1.68 2.773 0 5.227.56 7.36 1.68 2.187 1.067 4.027 2.587 5.52 4.56 1.547 1.973 2.72 4.373 3.52 7.2.8 2.827 1.2 5.947 1.2 9.36 0 3.84-.533 7.28-1.6 10.32-1.067 2.987-2.48 5.52-4.24 7.6-1.76 2.027-3.787 3.6-6.08 4.72-2.293 1.067-4.667 1.6-7.12 1.6-1.973 0-3.893-.427-5.76-1.28s-3.653-2.053-5.36-3.6l.32 7.36v13.6h-11.68v-62zm19.84 36.24c2.72 0 4.987-1.173 6.8-3.52 1.867-2.347 2.8-5.973 2.8-10.88 0-4.32-.72-7.6-2.16-9.84-1.387-2.293-3.627-3.44-6.72-3.44-1.547 0-3.04.4-4.48 1.2-1.387.747-2.853 1.893-4.4 3.44v19.68c1.44 1.227 2.853 2.107 4.24 2.64 1.387.48 2.693.72 3.92.72zm30.844-36.24h9.6l.8 7.92h.32c1.654-2.933 3.6-5.173 5.84-6.72 2.24-1.547 4.534-2.32 6.88-2.32 1.227 0 2.24.107 3.04.32.8.16 1.547.373 2.24.64l-2.08 10.16a11.458 11.458 0 0 0-2.24-.56 15.935 15.935 0 0 0-2.4-.16c-1.76 0-3.6.667-5.52 2-1.92 1.28-3.52 3.547-4.8 6.8V80h-11.68V35.2zm53.484 45.92c-3.147 0-6.08-.533-8.8-1.6a21.357 21.357 0 0 1-7.04-4.56c-1.973-2.027-3.547-4.48-4.72-7.36-1.12-2.933-1.68-6.24-1.68-9.92 0-3.627.587-6.88 1.76-9.76 1.173-2.933 2.72-5.413 4.64-7.44 1.973-2.08 4.213-3.653 6.72-4.72 2.507-1.12 5.093-1.68 7.76-1.68 3.093 0 5.787.533 8.08 1.6 2.347 1.067 4.293 2.56 5.84 4.48 1.6 1.92 2.8 4.187 3.6 6.8.8 2.613 1.2 5.467 1.2 8.56 0 1.067-.053 2.107-.16 3.12-.107.96-.24 1.707-.4 2.24h-27.6c.48 3.68 1.813 6.48 4 8.4 2.24 1.867 5.04 2.8 8.4 2.8 1.867 0 3.6-.267 5.2-.8 1.653-.533 3.28-1.307 4.88-2.32l4 7.2c-2.24 1.547-4.72 2.773-7.44 3.68a26.874 26.874 0 0 1-8.24 1.28zm7.28-28c0-3.04-.693-5.44-2.08-7.2-1.387-1.813-3.52-2.72-6.4-2.72-2.347 0-4.453.853-6.32 2.56-1.867 1.653-3.013 4.107-3.44 7.36h18.24zm31.764 28c-3.04 0-6.08-.587-9.12-1.76-3.04-1.173-5.68-2.693-7.92-4.56l5.36-7.36c2.027 1.547 4 2.747 5.92 3.6 1.974.853 4 1.28 6.08 1.28 2.24 0 3.867-.427 4.88-1.28 1.067-.907 1.6-2.053 1.6-3.44 0-.853-.266-1.573-.8-2.16-.533-.64-1.253-1.227-2.16-1.76-.853-.533-1.84-1.013-2.96-1.44-1.12-.427-2.266-.88-3.44-1.36a49.949 49.949 0 0 1-4.32-1.84 20.205 20.205 0 0 1-3.92-2.64 13.764 13.764 0 0 1-2.88-3.68c-.746-1.387-1.12-3.013-1.12-4.88 0-2.027.4-3.867 1.2-5.52.8-1.707 1.92-3.173 3.36-4.4 1.44-1.227 3.174-2.16 5.2-2.8 2.08-.693 4.374-1.04 6.88-1.04 3.307 0 6.214.587 8.72 1.76 2.507 1.12 4.694 2.373 6.56 3.76l-5.28 7.12c-1.6-1.12-3.2-2.027-4.8-2.72a11.084 11.084 0 0 0-4.88-1.12c-2.026 0-3.52.4-4.48 1.2-.96.8-1.44 1.84-1.44 3.12 0 .8.24 1.493.72 2.08.534.587 1.227 1.12 2.08 1.6.854.48 1.814.933 2.88 1.36 1.12.373 2.267.773 3.44 1.2a64.416 64.416 0 0 1 4.4 1.92 17.066 17.066 0 0 1 4 2.56c1.227 1.013 2.214 2.267 2.96 3.76.747 1.44 1.12 3.2 1.12 5.28 0 1.973-.4 3.813-1.2 5.52-.746 1.707-1.866 3.2-3.36 4.48-1.493 1.28-3.36 2.293-5.6 3.04-2.186.747-4.746 1.12-7.68 1.12zm38.81 0c-3.04 0-6.08-.587-9.12-1.76-3.04-1.173-5.68-2.693-7.92-4.56l5.36-7.36c2.026 1.547 4 2.747 5.92 3.6 1.973.853 4 1.28 6.08 1.28 2.24 0 3.866-.427 4.88-1.28 1.066-.907 1.6-2.053 1.6-3.44 0-.853-.267-1.573-.8-2.16-.534-.64-1.254-1.227-2.16-1.76-.854-.533-1.84-1.013-2.96-1.44-1.12-.427-2.267-.88-3.44-1.36a49.949 49.949 0 0 1-4.32-1.84 20.174 20.174 0 0 1-3.92-2.64 13.724 13.724 0 0 1-2.88-3.68c-.747-1.387-1.12-3.013-1.12-4.88 0-2.027.4-3.867 1.2-5.52.8-1.707 1.92-3.173 3.36-4.4 1.44-1.227 3.173-2.16 5.2-2.8 2.08-.693 4.373-1.04 6.88-1.04 3.306 0 6.213.587 8.72 1.76 2.506 1.12 4.693 2.373 6.56 3.76l-5.28 7.12c-1.6-1.12-3.2-2.027-4.8-2.72a11.09 11.09 0 0 0-4.88-1.12c-2.027 0-3.52.4-4.48 1.2-.96.8-1.44 1.84-1.44 3.12 0 .8.24 1.493.72 2.08.533.587 1.226 1.12 2.08 1.6.853.48 1.813.933 2.88 1.36 1.12.373 2.266.773 3.44 1.2a64.632 64.632 0 0 1 4.4 1.92 17.107 17.107 0 0 1 4 2.56c1.226 1.013 2.213 2.267 2.96 3.76.746 1.44 1.12 3.2 1.12 5.28 0 1.973-.4 3.813-1.2 5.52-.747 1.707-1.867 3.2-3.36 4.48-1.494 1.28-3.36 2.293-5.6 3.04-2.187.747-4.747 1.12-7.68 1.12zm26.009-45.92h11.68V80h-11.68V35.2zm5.92-7.2c-2.027 0-3.707-.587-5.04-1.76-1.333-1.227-2-2.773-2-4.64 0-1.92.667-3.467 2-4.64 1.333-1.173 3.013-1.76 5.04-1.76s3.68.587 4.96 1.76c1.333 1.173 2 2.72 2 4.64 0 1.867-.667 3.413-2 4.64-1.28 1.173-2.933 1.76-4.96 1.76zm36.297 53.12a21.39 21.39 0 0 1-8.16-1.6 20.894 20.894 0 0 1-6.8-4.56c-1.973-2.027-3.573-4.48-4.8-7.36-1.173-2.933-1.76-6.24-1.76-9.92 0-3.733.587-7.067 1.76-10 1.227-2.933 2.827-5.387 4.8-7.36a20.31 20.31 0 0 1 6.8-4.64 21.39 21.39 0 0 1 8.16-1.6c2.773 0 5.467.533 8.08 1.6a20.112 20.112 0 0 1 6.88 4.64c1.973 1.973 3.547 4.427 4.72 7.36 1.227 2.933 1.84 6.267 1.84 10 0 3.68-.613 6.987-1.84 9.92-1.173 2.88-2.747 5.333-4.72 7.36a20.68 20.68 0 0 1-6.88 4.56 21.191 21.191 0 0 1-8.08 1.6zm0-9.6c3.04 0 5.387-1.253 7.04-3.76 1.653-2.507 2.48-5.867 2.48-10.08 0-4.267-.827-7.653-2.48-10.16-1.653-2.56-4-3.84-7.04-3.84s-5.387 1.28-7.04 3.84c-1.653 2.507-2.48 5.893-2.48 10.16 0 4.213.827 7.573 2.48 10.08 1.653 2.507 4 3.76 7.04 3.76zm30.558-36.32h9.6l.8 5.92h.32a34.23 34.23 0 0 1 6.48-4.96c2.347-1.387 5.04-2.08 8.08-2.08 4.853 0 8.373 1.6 10.56 4.8 2.187 3.147 3.28 7.547 3.28 13.2V80h-11.76V53.52c0-3.467-.507-5.893-1.52-7.28-.96-1.387-2.56-2.08-4.8-2.08-1.867 0-3.467.427-4.8 1.28-1.333.853-2.853 2.107-4.56 3.76V80h-11.68V35.2zM740.788 98h-11.6l6.24-17.76-17.36-45.04h11.84l7.12 20.8a107.117 107.117 0 0 1 1.92 6.24c.587 2.08 1.2 4.213 1.84 6.4h.4c.533-2.08 1.067-4.187 1.6-6.32.533-2.133 1.067-4.24 1.6-6.32l6.16-20.8h11.28l-15.52 46.08-5.52 16.72zm46.418-16.88a21.39 21.39 0 0 1-8.16-1.6 20.894 20.894 0 0 1-6.8-4.56c-1.974-2.027-3.574-4.48-4.8-7.36-1.174-2.933-1.76-6.24-1.76-9.92 0-3.733.586-7.067 1.76-10 1.226-2.933 2.826-5.387 4.8-7.36a20.31 20.31 0 0 1 6.8-4.64 21.39 21.39 0 0 1 8.16-1.6c2.773 0 5.466.533 8.08 1.6a20.121 20.121 0 0 1 6.88 4.64c1.973 1.973 3.546 4.427 4.72 7.36 1.226 2.933 1.84 6.267 1.84 10 0 3.68-.614 6.987-1.84 9.92-1.174 2.88-2.747 5.333-4.72 7.36a20.69 20.69 0 0 1-6.88 4.56 21.195 21.195 0 0 1-8.08 1.6zm0-9.6c3.04 0 5.386-1.253 7.04-3.76 1.653-2.507 2.48-5.867 2.48-10.08 0-4.267-.827-7.653-2.48-10.16-1.654-2.56-4-3.84-7.04-3.84s-5.387 1.28-7.04 3.84c-1.654 2.507-2.48 5.893-2.48 10.16 0 4.213.826 7.573 2.48 10.08 1.653 2.507 4 3.76 7.04 3.76zm43.838 9.6c-4.8 0-8.294-1.573-10.48-4.72-2.187-3.2-3.28-7.6-3.28-13.2v-28h11.76v26.48c0 3.52.48 5.973 1.44 7.36 1.013 1.333 2.613 2 4.8 2 1.866 0 3.466-.427 4.8-1.28 1.333-.853 2.773-2.293 4.32-4.32V35.2h11.76V80h-9.6l-.88-6.4h-.32c-1.92 2.293-4.027 4.133-6.32 5.52-2.24 1.333-4.907 2-8 2zM2.16 115.2h11.76l4.88 22.16c.427 2.187.8 4.347 1.12 6.48.32 2.133.693 4.32 1.12 6.56h.32c.427-2.24.853-4.427 1.28-6.56a87.875 87.875 0 0 1 1.52-6.48l5.36-22.16H40l5.6 22.16a159.057 159.057 0 0 1 1.44 6.48c.427 2.133.88 4.32 1.36 6.56h.4c.427-2.24.8-4.427 1.12-6.56.32-2.133.693-4.293 1.12-6.48l4.88-22.16H66.8L55.76 160H41.92l-4.72-19.52c-.48-2.133-.933-4.24-1.36-6.32-.373-2.08-.773-4.32-1.2-6.72h-.4c-.427 2.4-.827 4.667-1.2 6.8-.373 2.08-.8 4.16-1.28 6.24L27.2 160H13.76l-11.6-44.8zm91.142 45.92c-2.826 0-5.546-.533-8.16-1.6a20.906 20.906 0 0 1-6.8-4.56c-1.973-2.027-3.573-4.48-4.8-7.36-1.173-2.933-1.76-6.24-1.76-9.92 0-3.733.587-7.067 1.76-10 1.227-2.933 2.827-5.387 4.8-7.36a20.314 20.314 0 0 1 6.8-4.64 21.386 21.386 0 0 1 8.16-1.6c2.774 0 5.467.533 8.08 1.6a20.102 20.102 0 0 1 6.88 4.64c1.974 1.973 3.547 4.427 4.72 7.36 1.227 2.933 1.84 6.267 1.84 10 0 3.68-.613 6.987-1.84 9.92-1.173 2.88-2.746 5.333-4.72 7.36a20.68 20.68 0 0 1-6.88 4.56 21.181 21.181 0 0 1-8.08 1.6zm0-9.6c3.04 0 5.387-1.253 7.04-3.76 1.654-2.507 2.48-5.867 2.48-10.08 0-4.267-.826-7.653-2.48-10.16-1.653-2.56-4-3.84-7.04-3.84s-5.386 1.28-7.04 3.84c-1.653 2.507-2.48 5.893-2.48 10.16 0 4.213.827 7.573 2.48 10.08 1.654 2.507 4 3.76 7.04 3.76zm43.839 9.6c-4.8 0-8.294-1.573-10.48-4.72-2.187-3.2-3.28-7.6-3.28-13.2v-28h11.76v26.48c0 3.52.48 5.973 1.44 7.36 1.013 1.333 2.613 2 4.8 2 1.866 0 3.466-.427 4.8-1.28 1.333-.853 2.773-2.293 4.32-4.32V115.2h11.76V160h-9.6l-.88-6.4h-.32c-1.92 2.293-4.027 4.133-6.32 5.52-2.24 1.333-4.907 2-8 2zm36.857-1.12V96.16h11.68V160h-11.68zm40.195 1.12c-2.774 0-5.307-.533-7.6-1.6-2.24-1.067-4.16-2.613-5.76-4.64-1.6-2.027-2.827-4.48-3.68-7.36-.854-2.88-1.28-6.16-1.28-9.84 0-3.68.506-6.96 1.52-9.84 1.066-2.933 2.48-5.413 4.24-7.44 1.76-2.027 3.76-3.573 6-4.64 2.293-1.12 4.64-1.68 7.04-1.68 2.56 0 4.693.453 6.4 1.36 1.706.853 3.36 2.027 4.96 3.52l-.48-7.04V96.16h11.76V160h-9.52l-.96-4.64h-.24a24.48 24.48 0 0 1-5.68 4.08c-2.134 1.12-4.374 1.68-6.72 1.68zm3.04-9.68a9.233 9.233 0 0 0 4.32-1.04c1.386-.693 2.72-1.893 4-3.6v-19.68c-1.387-1.227-2.774-2.08-4.16-2.56-1.387-.533-2.774-.8-4.16-.8-1.28 0-2.48.293-3.6.88s-2.107 1.467-2.96 2.64c-.8 1.173-1.467 2.613-2 4.32-.48 1.707-.72 3.68-.72 5.92 0 4.693.8 8.187 2.4 10.48 1.6 2.293 3.893 3.44 6.88 3.44zm49.209-55.28h11.68v16.08l-.48 8.4a34.765 34.765 0 0 1 6.08-4.56c2.293-1.333 4.96-2 8-2 4.853 0 8.373 1.6 10.56 4.8 2.187 3.147 3.28 7.547 3.28 13.2V160h-11.76v-26.48c0-3.467-.507-5.893-1.52-7.28-.96-1.387-2.56-2.08-4.8-2.08-1.867 0-3.467.427-4.8 1.28-1.333.853-2.853 2.107-4.56 3.76V160h-11.68V96.16zm61.412 64.64c-2.027 0-3.867-.293-5.52-.88-1.6-.64-2.987-1.52-4.16-2.64-1.12-1.173-2-2.56-2.64-4.16-.64-1.6-.96-3.36-.96-5.28-.267-5.493 1.626-9.547 5.68-12.16 4.106-2.667 10.8-4.133 20.08-4.4.213-2.347-.16-4.213-1.12-5.6-.907-1.44-3.067-2.16-6.48-2.16-2.08 0-4.267.373-6.56 1.12a27.347 27.347 0 0 0-6.4 3.12l-3.52-8.4c2.453-1.493 5.28-2.747 8.48-3.76 3.253-1.013 6.64-1.52 10.16-1.52 5.706 0 10 1.68 12.88 5.04 2.88 3.307 4.32 8.213 4.32 14.72V160h-9.6l-.88-4.56h-.24a23.617 23.617 0 0 1-6.32 3.92c-2.24.96-4.64 1.44-7.2 1.44zm3.6-8.96c1.706-.053 3.253-.427 4.64-1.12 1.44-.747 2.853-1.813 4.24-3.2v-9.04c-2.827.213-5.52.507-8.08.88-2.56.373-4.374 1.147-5.44 2.32-1.014 1.173-1.494 2.56-1.44 4.16.053 1.867.64 3.333 1.76 4.4 1.173 1.067 2.613 1.6 4.32 1.6zm26.625-36.64h11.84l6.56 22.32c.587 2.24 1.174 4.507 1.76 6.8.64 2.24 1.254 4.507 1.84 6.8h.4c.587-2.293 1.174-4.56 1.76-6.8a432.09 432.09 0 0 0 1.84-6.8l6.56-22.32h11.28l-14.96 44.8h-13.6l-15.28-44.8zm69.934 45.92c-3.147 0-6.08-.533-8.8-1.6a21.367 21.367 0 0 1-7.04-4.56c-1.973-2.027-3.547-4.48-4.72-7.36-1.12-2.933-1.68-6.24-1.68-9.92 0-3.627.587-6.88 1.76-9.76 1.173-2.933 2.72-5.413 4.64-7.44 1.973-2.08 4.213-3.653 6.72-4.72 2.507-1.12 5.093-1.68 7.76-1.68 3.093 0 5.787.533 8.08 1.6 2.347 1.067 4.293 2.56 5.84 4.48 1.6 1.92 2.8 4.187 3.6 6.8.8 2.613 1.2 5.467 1.2 8.56 0 1.067-.053 2.107-.16 3.12-.107.96-.24 1.707-.4 2.24h-27.6c.48 3.68 1.813 6.48 4 8.4 2.24 1.867 5.04 2.8 8.4 2.8 1.867 0 3.6-.267 5.2-.8 1.653-.533 3.28-1.307 4.88-2.32l4 7.2c-2.24 1.547-4.72 2.773-7.44 3.68a26.883 26.883 0 0 1-8.24 1.28zm7.28-28c0-3.04-.693-5.44-2.08-7.2-1.387-1.813-3.52-2.72-6.4-2.72-2.347 0-4.453.853-6.32 2.56-1.867 1.653-3.013 4.107-3.44 7.36h18.24zM198.449 47.393V34.26l3.79-3.046V.463h-5.429L178 16.279l1.895 3.415c3.928-.43 11.179-2.317 13.402-3.167v56.918l-13.402 3.888v6.16h22.344V50.438l-3.782-3.039-.008-.007z" fill="#fff"/><path d="m226.07 77.325-13.286-3.843V.462h-8.526V32.02l-3.79 3.038v11.53l3.79 3.038v33.859h21.812v-6.16zM235.564 8.704c-.109-1.34-.984-2.105-2.762-2.105-1.722 0-2.488.656-2.515 1.586-.027 1.011.902 1.586 2.734 1.968l1.641.383c4.265.902 6.152 2.98 6.18 6.016-.028 3.883-3.008 6.07-8.012 6.07-5.113 0-8.422-2.242-8.477-7.11h4.977c.082 1.833 1.367 2.817 3.418 2.817 1.777 0 2.734-.738 2.762-1.777-.028-.957-.821-1.504-3.036-1.996l-1.996-.438c-3.472-.766-5.605-2.488-5.605-5.55-.028-3.747 3.281-6.262 7.929-6.262 4.758 0 7.739 2.543 7.766 6.398h-5.004zm5.996-1.914V2.58h17.063v4.21h-5.961v15.586h-5.141V6.79h-5.961z" fill="#fff"/></svg>