<svg width="1920" height="108" fill="none" xmlns="http://www.w3.org/2000/svg"><ellipse cx="510.5" cy="61.723" rx="200" ry="1.325" fill="#fff" fill-opacity=".4"/><ellipse cx="460.5" cy="72.374" rx="250" ry="1.325" fill="#fff" fill-opacity=".4"/><ellipse cx="410.5" cy="83.024" rx="300" ry="1.325" fill="#fff" fill-opacity=".4"/><ellipse cx="390.5" cy="93.675" rx="320" ry="1.325" fill="#fff" fill-opacity=".4"/><path d="M859 25.134c0 7.684 5.716 15.389 15.483 15.389s9.359-2.94 9.359-2.94l-1.762-4.154s-16.945 5.613-16.945-7.888c0-13.5 10.498-12.352 15.279-11.31l2.074-4.046S860.139 3.122 859 25.133zM916.892 9.112v30.714h6.243V15.282l12.227 24.544h8.671V9.112h-5.888V33.58L925.252 9.112h-8.36zM974.119 9.112h-23.692v5.29h8.004v25.424h6.501V14.402h6.447l2.74-5.29zM985.572 26.733h10.939v-5.516h-9.112l-1.827 2.21v-9.1h10.337l2.203-5.14h-12.54v-.075h-6.296V39.826h16.633l2.203-5.14h-12.54v-7.953zM896.832 26.733h10.938v-5.516h-9.111l-1.827 2.21v-9.1h10.336l2.203-5.14h-12.539v-.075h-6.296V39.826h16.632l2.203-5.14h-12.539v-7.953zM1024.13 34.685l-5.08-8.102c3.09-.88 6.73-3.08 6.73-8.51 0-9.434-9.08-8.962-9.08-8.962h-11.17v30.714h6.29V27.173h1.22l7.8 12.652h5.61l2.62-5.14h-4.95.01zm-12.31-11.794v-8.564h4.27s4.51-.129 4.51 3.81c0 3.938-3.54 4.743-4.38 4.743h-4.39l-.01.01zM1037.02 8.256l7.61-6.815h2.56v12.116s-2.09.236-2.09 3.82c0 3.585 2.09 3.725 2.09 3.725v12.652h-9.61V32.21l6.04-2.554V7.344l-2.08.912h-4.52z" fill="#fff"/><path d="M1048.33 1.441h3.12v28.214l5.36 2.554v1.545h-8.48V20.47s-2.11-.473-2.11-3.177c0-2.705.98-2.93 2.11-3.434V1.44zM771.18 63.6v23.32H754.7V63.6h16.48zm-13.28 2.64v18.08h10.08V66.24H757.9zm24.08-6.16v35.96h-3.28V60.08h3.28zm11.397 24.56c2.053-.027 4.053-.093 6-.2 1.973-.133 4.107-.4 6.4-.8l.24 2.72c-2.48.427-4.787.707-6.92.84-2.133.107-4.307.16-6.52.16h-2.36V73.92h10.16v-7.24h-10.28V64h13.48v12.6h-10.2v8.04zm26.12-24.56v35.84h-3.16v-19h-5.08v17.2h-3.08V60.88h3.08v13.36h5.08V60.08h3.16zm14.037 24.96c1.413 0 2.533-.84 3.36-2.52.853-1.707 1.28-4.04 1.28-7 0-1.44-.12-2.733-.36-3.88-.214-1.173-.52-2.16-.92-2.96-.4-.827-.894-1.453-1.48-1.88a2.914 2.914 0 0 0-1.88-.68c-1.44 0-2.587.853-3.44 2.56-.827 1.68-1.24 3.96-1.24 6.84 0 2.96.413 5.293 1.24 7 .853 1.68 2 2.52 3.44 2.52zm12.12-24.16h3.12V94.2h-3.12V76.72h-4.52c-.08 1.76-.32 3.347-.72 4.76-.374 1.387-.894 2.573-1.56 3.56-.64.987-1.414 1.747-2.32 2.28-.907.507-1.907.76-3 .76-1.174 0-2.24-.293-3.2-.88-.934-.587-1.734-1.413-2.4-2.48-.667-1.093-1.187-2.413-1.56-3.96-.347-1.547-.52-3.293-.52-5.24 0-1.92.173-3.64.52-5.16.373-1.547.893-2.853 1.56-3.92.666-1.093 1.466-1.92 2.4-2.48.96-.587 2.026-.88 3.2-.88 1.066 0 2.04.253 2.92.76.906.507 1.68 1.24 2.32 2.2.666.933 1.2 2.08 1.6 3.44.4 1.36.653 2.88.76 4.56h4.52V60.88zm10.24-.8v35.88h-3.12V60.08h3.12zm36.197 24.44h-3.16V60.08h3.16v24.44zm-10.16-13.56h-5.6v-2.68h5.6v-7.4h3.08V81.2h-3.08V70.96zm-4.24 8.64c-1.654-.72-3.067-1.707-4.24-2.96a13.967 13.967 0 0 1-2.64-4.28 15.426 15.426 0 0 1-2.8 4.64 12.227 12.227 0 0 1-4.4 3.28l-1.76-2.52a11.893 11.893 0 0 0 3.08-1.96c.933-.827 1.72-1.72 2.36-2.68a11.96 11.96 0 0 0 1.44-3.08c.346-1.067.52-2.107.52-3.12v-4.68h3.16v4.68c0 1.04.16 2.067.48 3.08.32.987.773 1.933 1.36 2.84.613.907 1.36 1.733 2.24 2.48.88.72 1.88 1.32 3 1.8l-1.8 2.48zm4.24 4.32c0 1.147.333 2.24 1 3.28.693 1.013 1.6 1.933 2.72 2.76 1.12.827 2.413 1.52 3.88 2.08 1.466.56 3 .96 4.6 1.2l-1.24 2.56a22.088 22.088 0 0 1-3.96-1c-1.28-.427-2.48-.96-3.6-1.6a16.388 16.388 0 0 1-2.96-2.2 11.16 11.16 0 0 1-2.08-2.72 11.55 11.55 0 0 1-2.16 2.72c-.854.827-1.84 1.56-2.96 2.2a18.797 18.797 0 0 1-3.56 1.6 21.13 21.13 0 0 1-3.92 1l-1.24-2.56c1.6-.24 3.133-.64 4.6-1.2 1.466-.56 2.76-1.253 3.88-2.08 1.12-.827 2.013-1.747 2.68-2.76.666-1.04 1-2.133 1-3.28V82.8h3.32v1.12zM928.487 87h-3.16V60.08h3.16V87zm-10.16-15.2h-5.6v-2.68h5.6V60.8h3.08v25.16h-3.08V71.8zm-4.28 9.12c-1.626-.773-3.013-1.8-4.16-3.08a13.88 13.88 0 0 1-2.64-4.32 16.034 16.034 0 0 1-2.8 4.84 13.317 13.317 0 0 1-4.32 3.48l-1.84-2.52a12.391 12.391 0 0 0 3.08-2.12 13.521 13.521 0 0 0 2.32-2.84c.64-1.013 1.12-2.08 1.44-3.2.347-1.12.52-2.213.52-3.28V62.6h3.16v5.28c0 1.067.147 2.12.44 3.16a12.41 12.41 0 0 0 1.36 2.96c.614.907 1.36 1.747 2.24 2.52.88.747 1.88 1.373 3 1.88l-1.8 2.52zm15.48 11.56v2.68h-24.44V83.72h3.28v8.76h21.16zm9.997-7.8c1.627 0 3.12-.013 4.48-.04 1.36-.053 2.654-.12 3.88-.2a70.574 70.574 0 0 0 3.56-.32 99.034 99.034 0 0 0 3.6-.56l.36 2.68c-1.306.24-2.573.44-3.8.6-1.226.133-2.493.24-3.8.32-1.28.08-2.64.133-4.08.16-1.44.027-3.013.04-4.72.04h-2.76V63.32h16.6v2.72h-13.32v7.4h11.76v2.64h-11.76v8.6zm24.64-24.64V96h-3.28V76.32h-7.4V73.6h7.4V60.04h3.28zm32.917 21.24v-21.2h3.279V87.4h-3.279v-3.68h-7.28v-2.44h7.28zm-14.6-17.32c-1.706 0-3.093.347-4.16 1.04-1.04.693-1.56 1.613-1.56 2.76 0 1.173.52 2.107 1.56 2.8 1.067.693 2.454 1.04 4.16 1.04 1.707 0 3.08-.347 4.12-1.04 1.067-.693 1.6-1.627 1.6-2.8 0-1.147-.533-2.067-1.6-2.76-1.04-.693-2.413-1.04-4.12-1.04zm0 10.08c-1.306 0-2.506-.147-3.6-.44-1.066-.293-2-.707-2.8-1.24-.773-.56-1.373-1.227-1.8-2-.426-.773-.64-1.64-.64-2.6 0-.933.214-1.787.64-2.56a5.735 5.735 0 0 1 1.8-1.96c.8-.56 1.734-.987 2.8-1.28 1.094-.293 2.294-.44 3.6-.44 1.307 0 2.494.147 3.56.44 1.094.293 2.027.72 2.8 1.28.8.533 1.414 1.187 1.84 1.96.427.773.64 1.627.64 2.56 0 .96-.213 1.827-.64 2.6-.426.773-1.04 1.44-1.84 2-.773.533-1.706.947-2.8 1.24-1.066.293-2.253.44-3.56.44zm-1.28 5.16c-1.786.08-3.52.133-5.2.16-1.68.027-3.266.04-4.76.04l-.44-2.72h5.32a235.199 235.199 0 0 0 11.92-.48 97.786 97.786 0 0 0 5.88-.56l.28 2.36c-1.6.24-3.213.453-4.84.64-1.626.16-3.253.293-4.88.4v7.08h-3.28V79.2zm20.079 13.28v2.68h-25.359V84.72h3.28v7.76h22.079z" fill="#fff"/><path d="m1030.02 80.8-.88-3.24a173.7 173.7 0 0 1-1.32-4.8 137.1 137.1 0 0 0-1.28-4.88h-.16c-.37 1.627-.77 3.267-1.2 4.92-.43 1.627-.87 3.213-1.32 4.76l-.88 3.24h7.04zm1.28 4.6h-9.6l-2.08 7.6h-6l9.48-29.6h6.96l9.52 29.6h-6.2l-2.08-7.6zm6.6-22h6.2l3.92 14.4c.46 1.653.86 3.24 1.2 4.76.38 1.52.8 3.12 1.28 4.8h.2c.46-1.68.87-3.28 1.24-4.8.4-1.52.83-3.107 1.28-4.76l3.84-14.4h6l-9.08 29.6h-7.04l-9.04-29.6zm28.01 0h18.16v4.92h-12.24v6.84h10.4v4.96h-10.4v7.92h12.68V93h-18.6V63.4zm24.05 0h6.04l8.6 15.76 2.96 6.4h.2c-.16-1.547-.33-3.24-.52-5.08-.16-1.84-.24-3.6-.24-5.28V63.4h5.6V93h-6l-8.56-15.84-3-6.36h-.2c.13 1.6.28 3.293.44 5.08.19 1.787.28 3.533.28 5.24V93h-5.6V63.4zm40.76 30.16c-1.81 0-3.43-.253-4.84-.76a9.24 9.24 0 0 1-3.64-2.48c-.99-1.12-1.75-2.56-2.28-4.32-.51-1.76-.76-3.867-.76-6.32V63.4h5.92v16.8c0 1.547.12 2.853.36 3.92.27 1.04.64 1.88 1.12 2.52.48.64 1.07 1.107 1.76 1.4.69.267 1.48.4 2.36.4.88 0 1.67-.133 2.36-.4.72-.293 1.33-.76 1.84-1.4.51-.64.89-1.48 1.16-2.52.27-1.067.4-2.373.4-3.92V63.4h5.68v16.28c0 2.453-.25 4.56-.76 6.32-.51 1.76-1.25 3.2-2.24 4.32a8.965 8.965 0 0 1-3.6 2.48c-1.41.507-3.03.76-4.84.76zm18-30.16h18.16v4.92h-12.24v6.84h10.4v4.96h-10.4v7.92h12.68V93h-18.6V63.4z" fill="#F58220"/><ellipse cx="1409.5" cy="61.723" rx="200" ry="1.325" fill="#fff" fill-opacity=".4"/><ellipse cx="1459.5" cy="72.374" rx="250" ry="1.325" fill="#fff" fill-opacity=".4"/><ellipse cx="1509.5" cy="83.024" rx="300" ry="1.325" fill="#fff" fill-opacity=".4"/><ellipse cx="1529.5" cy="93.675" rx="320" ry="1.325" fill="#fff" fill-opacity=".4"/></svg>