<svg width="908" height="325" fill="none" xmlns="http://www.w3.org/2000/svg"><g filter="url(#a)"><g filter="url(#b)"><path d="M20.194 56.84H42.17l16.884 46.364c1.072 3.127 2.1 6.298 3.082 9.514l2.948 9.648h.67a198.536 198.536 0 0 0 2.948-9.648c.983-3.216 2.01-6.387 3.082-9.514L88.266 56.84h21.976V156h-18.09v-41.406c0-2.323.09-4.869.268-7.638l.536-8.576c.268-2.948.536-5.807.804-8.576.268-2.859.536-5.45.804-7.772h-.536l-8.04 23.316-15.276 41.674h-11.39l-15.41-41.674-7.906-23.316h-.536c.268 2.323.536 4.913.804 7.772.268 2.77.536 5.628.804 8.576.268 2.859.491 5.717.67 8.576.179 2.769.268 5.315.268 7.638V156H20.194V56.84zm114.371 0h19.832V156h-19.832V56.84zm64.063 45.962h12.864c6.432 0 11.3-1.295 14.606-3.886 3.394-2.68 5.092-6.7 5.092-12.06s-1.698-9.067-5.092-11.122c-3.306-2.144-8.174-3.216-14.606-3.216h-12.864v30.284zM232.798 156l-20.368-37.52h-13.802V156h-19.832V56.84h34.572c5.181 0 10.05.491 14.606 1.474 4.556.983 8.486 2.635 11.792 4.958 3.394 2.323 6.03 5.405 7.906 9.246 1.965 3.841 2.948 8.62 2.948 14.338 0 7.504-1.742 13.579-5.226 18.224-3.395 4.645-7.951 8.085-13.668 10.318L254.908 156h-22.11zm79.547-40.87-2.948-10.854a516.062 516.062 0 0 1-4.422-16.08 435.829 435.829 0 0 0-4.288-16.348h-.536a624.246 624.246 0 0 1-4.02 16.482 576.41 576.41 0 0 1-4.422 15.946l-2.948 10.854h23.584zm4.288 15.41h-32.16L277.505 156h-20.1l31.758-99.16h23.316L344.371 156h-20.77l-6.968-25.46zm39.346-73.7h60.836v16.482h-41.004v22.914h34.84v16.616h-34.84v26.532h42.478V156h-62.31V56.84zm155.011 58.29-2.948-10.854a510.581 510.581 0 0 1-4.422-16.08 435.829 435.829 0 0 0-4.288-16.348h-.536a632.238 632.238 0 0 1-4.02 16.482 576.41 576.41 0 0 1-4.422 15.946l-2.948 10.854h23.584zm4.288 15.41h-32.16L476.15 156h-20.1l31.758-99.16h23.316L543.016 156h-20.77l-6.968-25.46zm68.96 27.336c-6.7 0-13.222-1.251-19.564-3.752-6.254-2.501-11.792-6.075-16.616-10.72l11.39-13.668a46.669 46.669 0 0 0 11.926 8.04c4.466 1.965 8.888 2.948 13.266 2.948 5.181 0 9.112-1.027 11.792-3.082 2.68-2.055 4.02-4.824 4.02-8.308 0-1.876-.358-3.439-1.072-4.69-.715-1.251-1.742-2.367-3.082-3.35-1.251-.983-2.814-1.876-4.69-2.68a823.845 823.845 0 0 0-6.03-2.68l-13.266-5.628a52.98 52.98 0 0 1-7.37-3.886 29.123 29.123 0 0 1-6.432-5.494 29.05 29.05 0 0 1-4.556-7.504c-1.162-2.859-1.742-6.12-1.742-9.782 0-4.02.848-7.772 2.546-11.256a26.237 26.237 0 0 1 7.102-9.112c3.037-2.59 6.655-4.6 10.854-6.03 4.198-1.519 8.799-2.278 13.802-2.278 5.806 0 11.434 1.117 16.884 3.35 5.449 2.144 10.184 5.27 14.204 9.38l-10.05 12.462c-3.127-2.59-6.388-4.6-9.782-6.03-3.395-1.43-7.147-2.144-11.256-2.144-4.378 0-7.862.938-10.452 2.814-2.591 1.787-3.886 4.333-3.886 7.638 0 1.787.402 3.305 1.206 4.556.893 1.25 2.01 2.367 3.35 3.35 1.429.983 3.082 1.876 4.958 2.68 1.876.804 3.886 1.608 6.03 2.412l12.998 5.494c3.037 1.251 5.762 2.68 8.174 4.288 2.501 1.608 4.6 3.484 6.298 5.628 1.786 2.144 3.126 4.645 4.02 7.504.982 2.769 1.474 5.941 1.474 9.514a27.1 27.1 0 0 1-2.546 11.524c-1.608 3.663-3.976 6.879-7.102 9.648-3.127 2.68-6.968 4.824-11.524 6.432-4.467 1.608-9.559 2.412-15.276 2.412zm81.133 0c-6.7 0-13.222-1.251-19.564-3.752-6.254-2.501-11.792-6.075-16.616-10.72l11.39-13.668a46.669 46.669 0 0 0 11.926 8.04c4.466 1.965 8.888 2.948 13.266 2.948 5.181 0 9.112-1.027 11.792-3.082 2.68-2.055 4.02-4.824 4.02-8.308 0-1.876-.358-3.439-1.072-4.69-.715-1.251-1.742-2.367-3.082-3.35-1.251-.983-2.814-1.876-4.69-2.68a823.845 823.845 0 0 0-6.03-2.68l-13.266-5.628a52.98 52.98 0 0 1-7.37-3.886 29.123 29.123 0 0 1-6.432-5.494 29.05 29.05 0 0 1-4.556-7.504c-1.162-2.859-1.742-6.12-1.742-9.782 0-4.02.848-7.772 2.546-11.256a26.237 26.237 0 0 1 7.102-9.112c3.037-2.59 6.655-4.6 10.854-6.03 4.198-1.519 8.799-2.278 13.802-2.278 5.806 0 11.434 1.117 16.884 3.35 5.449 2.144 10.184 5.27 14.204 9.38l-10.05 12.462c-3.127-2.59-6.388-4.6-9.782-6.03-3.395-1.43-7.147-2.144-11.256-2.144-4.378 0-7.862.938-10.452 2.814-2.591 1.787-3.886 4.333-3.886 7.638 0 1.787.402 3.305 1.206 4.556.893 1.25 2.01 2.367 3.35 3.35 1.429.983 3.082 1.876 4.958 2.68 1.876.804 3.886 1.608 6.03 2.412l12.998 5.494c3.037 1.251 5.762 2.68 8.174 4.288 2.501 1.608 4.6 3.484 6.298 5.628 1.786 2.144 3.126 4.645 4.02 7.504.982 2.769 1.474 5.941 1.474 9.514 0 4.02-.849 7.861-2.547 11.524-1.607 3.663-3.975 6.879-7.101 9.648-3.127 2.68-6.968 4.824-11.524 6.432-4.467 1.608-9.559 2.412-15.276 2.412zM719.376 56.84h60.836v16.482h-41.004v22.914h34.84v16.616h-34.84v26.532h42.478V156h-62.31V56.84zm102.139 16.482h-27.872V56.84h75.844v16.482h-28.14V156h-19.832V73.322z" fill="#fff"/></g><g filter="url(#c)" fill="#fff"><path d="M207 262.263c0 19.035 14.206 38.123 38.478 38.123 24.272 0 23.257-7.284 23.257-7.284l-4.379-10.289s-42.109 13.905-42.109-19.54c0-33.444 26.088-30.6 37.97-28.021l5.154-10.023S209.83 207.736 207 262.263zM350.871 222.571v76.088h15.514v-60.801l30.387 60.801h21.549v-76.088h-14.633v60.615l-32.043-60.615h-20.774zM493.087 222.571h-58.878v13.107h19.893v62.981h16.155v-62.981h16.021l6.809-13.107zM521.551 266.224h27.183V252.56h-22.643l-4.54 5.476v-22.544h25.688l5.474-12.735h-31.162v-.186h-15.647V298.659h41.335l5.474-12.735h-31.162v-19.7zM301.019 266.224h27.182V252.56h-22.643l-4.539 5.476v-22.544h25.687l5.474-12.735h-31.161v-.186h-15.648V298.659h41.335l5.474-12.735h-31.161v-19.7zM617.385 285.924l-12.63-20.072c7.663-2.18 16.715-7.63 16.715-21.082 0-23.369-22.563-22.199-22.563-22.199h-27.77v76.087h15.647v-31.344h3.018l19.385 31.344h13.939l6.515-12.734h-12.283.027zm-30.601-29.218v-21.215h10.601s11.215-.319 11.215 9.438c0 9.757-8.785 11.751-10.894 11.751h-10.895l-.027.026zM649.401 220.452l18.905-16.882h6.382v30.015s-5.207.585-5.207 9.464c0 8.88 5.207 9.225 5.207 9.225v31.344h-23.899v-3.828l15.007-6.327v-55.271l-5.154 2.26h-11.241z"/><path d="M677.518 203.57h7.743v69.893l13.325 6.327v3.828h-21.068v-32.912s-5.26-1.17-5.26-7.87c0-6.699 2.456-7.257 5.26-8.507V203.57z"/></g></g><defs><filter id="a" x="4" y="0" width="908" height="317" filterUnits="userSpaceOnUse" color-interpolation-filters="sRGB"><feFlood flood-opacity="0" result="BackgroundImageFix"/><feColorMatrix in="SourceAlpha" values="0 0 0 0 0 0 0 0 0 0 0 0 0 0 0 0 0 0 127 0" result="hardAlpha"/><feOffset dy="4"/><feGaussianBlur stdDeviation="2"/><feComposite in2="hardAlpha" operator="out"/><feColorMatrix values="0 0 0 0 0 0 0 0 0 0 0 0 0 0 0 0 0 0 0.6 0"/><feBlend in2="BackgroundImageFix" result="effect1_dropShadow_1_623"/><feBlend in="SourceGraphic" in2="effect1_dropShadow_1_623" result="shape"/></filter><filter id="b" x=".194" y="38.964" width="889.293" height="142.912" filterUnits="userSpaceOnUse" color-interpolation-filters="sRGB"><feFlood flood-opacity="0" result="BackgroundImageFix"/><feColorMatrix in="SourceAlpha" values="0 0 0 0 0 0 0 0 0 0 0 0 0 0 0 0 0 0 127 0" result="hardAlpha"/><feOffset dy="4"/><feGaussianBlur stdDeviation="10"/><feComposite in2="hardAlpha" operator="out"/><feColorMatrix values="0 0 0 0 0 0 0 0 0 0.258824 0 0 0 0 0.478431 0 0 0 0.5 0"/><feBlend in2="BackgroundImageFix" result="effect1_dropShadow_1_623"/><feBlend in="SourceGraphic" in2="effect1_dropShadow_1_623" result="shape"/></filter><filter id="c" x="187" y="187.57" width="531.586" height="136.816" filterUnits="userSpaceOnUse" color-interpolation-filters="sRGB"><feFlood flood-opacity="0" result="BackgroundImageFix"/><feColorMatrix in="SourceAlpha" values="0 0 0 0 0 0 0 0 0 0 0 0 0 0 0 0 0 0 127 0" result="hardAlpha"/><feOffset dy="4"/><feGaussianBlur stdDeviation="10"/><feComposite in2="hardAlpha" operator="out"/><feColorMatrix values="0 0 0 0 0 0 0 0 0 0.258824 0 0 0 0 0.478431 0 0 0 0.7 0"/><feBlend in2="BackgroundImageFix" result="effect1_dropShadow_1_623"/><feBlend in="SourceGraphic" in2="effect1_dropShadow_1_623" result="shape"/></filter></defs></svg>