<svg width="989" height="178" fill="none" xmlns="http://www.w3.org/2000/svg"><path d="M19.04 30.64H2.4V20.8h45.28v9.84h-16.8V80H19.04V30.64zm36.48-14.48H67.2v16.08l-.48 8.4a34.806 34.806 0 0 1 6.08-4.56c2.293-1.333 4.96-2 8-2 4.853 0 8.373 1.6 10.56 4.8 2.187 3.147 3.28 7.547 3.28 13.2V80H82.88V53.52c0-3.467-.507-5.893-1.52-7.28-.96-1.387-2.56-2.08-4.8-2.08-1.867 0-3.467.427-4.8 1.28-1.333.853-2.853 2.107-4.56 3.76V80H55.52V16.16zm69.812 64.96c-3.147 0-6.08-.533-8.8-1.6a21.357 21.357 0 0 1-7.04-4.56c-1.973-2.027-3.547-4.48-4.72-7.36-1.12-2.933-1.68-6.24-1.68-9.92 0-3.627.587-6.88 1.76-9.76 1.173-2.933 2.72-5.413 4.64-7.44 1.973-2.08 4.213-3.653 6.72-4.72 2.507-1.12 5.093-1.68 7.76-1.68 3.093 0 5.787.533 8.08 1.6 2.347 1.067 4.293 2.56 5.84 4.48 1.6 1.92 2.8 4.187 3.6 6.8.8 2.613 1.2 5.467 1.2 8.56 0 1.067-.053 2.107-.16 3.12-.107.96-.24 1.707-.4 2.24h-27.6c.48 3.68 1.813 6.48 4 8.4 2.24 1.867 5.04 2.8 8.4 2.8 1.867 0 3.6-.267 5.2-.8 1.653-.533 3.28-1.307 4.88-2.32l4 7.2c-2.24 1.547-4.72 2.773-7.44 3.68a26.874 26.874 0 0 1-8.24 1.28zm7.28-28c0-3.04-.693-5.44-2.08-7.2-1.387-1.813-3.52-2.72-6.4-2.72-2.347 0-4.453.853-6.32 2.56-1.867 1.653-3.013 4.107-3.44 7.36h18.24zm158.879 28c-4 0-7.893-.747-11.68-2.24a30.493 30.493 0 0 1-9.92-6.4l6.8-8.16a27.881 27.881 0 0 0 7.12 4.8c2.667 1.173 5.307 1.76 7.92 1.76 3.094 0 5.44-.613 7.04-1.84 1.6-1.227 2.4-2.88 2.4-4.96 0-1.12-.213-2.053-.64-2.8-.426-.747-1.04-1.413-1.84-2-.746-.587-1.68-1.12-2.8-1.6a454.774 454.774 0 0 0-3.6-1.6l-7.92-3.36a31.688 31.688 0 0 1-4.4-2.32c-1.44-.907-2.72-2-3.84-3.28a17.368 17.368 0 0 1-2.72-4.48c-.693-1.707-1.04-3.653-1.04-5.84 0-2.4.507-4.64 1.52-6.72a15.683 15.683 0 0 1 4.24-5.44c1.814-1.547 3.974-2.747 6.48-3.6 2.507-.907 5.254-1.36 8.24-1.36 3.467 0 6.827.667 10.08 2 3.254 1.28 6.08 3.147 8.48 5.6l-6 7.44c-1.866-1.547-3.813-2.747-5.84-3.6-2.026-.853-4.266-1.28-6.72-1.28-2.613 0-4.693.56-6.24 1.68-1.546 1.067-2.32 2.587-2.32 4.56 0 1.067.24 1.973.72 2.72a8.906 8.906 0 0 0 2 2c.854.587 1.84 1.12 2.96 1.6 1.12.48 2.32.96 3.6 1.44l7.76 3.28c1.814.747 3.44 1.6 4.88 2.56 1.494.96 2.747 2.08 3.76 3.36 1.067 1.28 1.867 2.773 2.4 4.48.587 1.653.88 3.547.88 5.68 0 2.4-.506 4.693-1.52 6.88-.96 2.187-2.373 4.107-4.24 5.76-1.866 1.6-4.16 2.88-6.88 3.84-2.666.96-5.706 1.44-9.12 1.44zm49.922 0c-3.147 0-6.08-.533-8.8-1.6a21.357 21.357 0 0 1-7.04-4.56c-1.973-2.027-3.547-4.48-4.72-7.36-1.12-2.933-1.68-6.24-1.68-9.92 0-3.627.587-6.88 1.76-9.76 1.173-2.933 2.72-5.413 4.64-7.44 1.973-2.08 4.213-3.653 6.72-4.72 2.507-1.12 5.093-1.68 7.76-1.68 3.093 0 5.787.533 8.08 1.6 2.347 1.067 4.293 2.56 5.84 4.48 1.6 1.92 2.8 4.187 3.6 6.8.8 2.613 1.2 5.467 1.2 8.56 0 1.067-.053 2.107-.16 3.12-.107.96-.24 1.707-.4 2.24h-27.6c.48 3.68 1.813 6.48 4 8.4 2.24 1.867 5.04 2.8 8.4 2.8 1.867 0 3.6-.267 5.2-.8 1.653-.533 3.28-1.307 4.88-2.32l4 7.2c-2.24 1.547-4.72 2.773-7.44 3.68a26.874 26.874 0 0 1-8.24 1.28zm7.28-28c0-3.04-.693-5.44-2.08-7.2-1.387-1.813-3.52-2.72-6.4-2.72-2.347 0-4.453.853-6.32 2.56-1.867 1.653-3.013 4.107-3.44 7.36h18.24zm18.964-17.92h9.6l.8 7.92h.32c1.654-2.933 3.6-5.173 5.84-6.72 2.24-1.547 4.534-2.32 6.88-2.32 1.227 0 2.24.107 3.04.32.8.16 1.547.373 2.24.64l-2.08 10.16a11.458 11.458 0 0 0-2.24-.56 15.935 15.935 0 0 0-2.4-.16c-1.76 0-3.6.667-5.52 2-1.92 1.28-3.52 3.547-4.8 6.8V80h-11.68V35.2zm28.844 0h11.84l6.56 22.32c.587 2.24 1.174 4.507 1.76 6.8.64 2.24 1.254 4.507 1.84 6.8h.4c.587-2.293 1.174-4.56 1.76-6.8.64-2.293 1.254-4.56 1.84-6.8l6.56-22.32h11.28L425.381 80h-13.6l-15.28-44.8zm50.494 0h11.68V80h-11.68V35.2zm5.92-7.2c-2.027 0-3.707-.587-5.04-1.76-1.333-1.227-2-2.773-2-4.64 0-1.92.667-3.467 2-4.64 1.333-1.173 3.013-1.76 5.04-1.76s3.68.587 4.96 1.76c1.333 1.173 2 2.72 2 4.64 0 1.867-.667 3.413-2 4.64-1.28 1.173-2.933 1.76-4.96 1.76zm36.617 53.12c-3.093 0-5.973-.533-8.64-1.6-2.667-1.067-4.987-2.587-6.96-4.56-1.92-2.027-3.44-4.48-4.56-7.36-1.12-2.933-1.68-6.24-1.68-9.92 0-3.733.613-7.067 1.84-10 1.28-2.933 2.96-5.387 5.04-7.36 2.08-2.027 4.507-3.573 7.28-4.64a24.08 24.08 0 0 1 8.72-1.6c2.773 0 5.227.48 7.36 1.44s4.027 2.133 5.68 3.52l-5.6 7.6c-1.12-.96-2.24-1.68-3.36-2.16-1.067-.533-2.24-.8-3.52-.8-3.413 0-6.187 1.28-8.32 3.84-2.08 2.507-3.12 5.893-3.12 10.16 0 4.213 1.04 7.573 3.12 10.08 2.08 2.507 4.747 3.76 8 3.76 1.6 0 3.147-.32 4.64-.96a17.273 17.273 0 0 0 4.08-2.64l4.64 7.76c-2.133 1.867-4.48 3.253-7.04 4.16-2.56.853-5.093 1.28-7.6 1.28zm39.366 0c-3.147 0-6.08-.533-8.8-1.6a21.347 21.347 0 0 1-7.04-4.56c-1.974-2.027-3.547-4.48-4.72-7.36-1.12-2.933-1.68-6.24-1.68-9.92 0-3.627.586-6.88 1.76-9.76 1.173-2.933 2.72-5.413 4.64-7.44 1.973-2.08 4.213-3.653 6.72-4.72 2.506-1.12 5.093-1.68 7.76-1.68 3.093 0 5.786.533 8.08 1.6 2.346 1.067 4.293 2.56 5.84 4.48 1.6 1.92 2.8 4.187 3.6 6.8.8 2.613 1.2 5.467 1.2 8.56 0 1.067-.054 2.107-.16 3.12-.107.96-.24 1.707-.4 2.24h-27.6c.48 3.68 1.813 6.48 4 8.4 2.24 1.867 5.04 2.8 8.4 2.8 1.866 0 3.6-.267 5.2-.8 1.653-.533 3.28-1.307 4.88-2.32l4 7.2c-2.24 1.547-4.72 2.773-7.44 3.68a26.879 26.879 0 0 1-8.24 1.28zm7.28-28c0-3.04-.694-5.44-2.08-7.2-1.387-1.813-3.52-2.72-6.4-2.72-2.347 0-4.454.853-6.32 2.56-1.867 1.653-3.014 4.107-3.44 7.36h18.24zM589.907 98h-11.6l6.24-17.76-17.36-45.04h11.84l7.12 20.8a107.117 107.117 0 0 1 1.92 6.24c.587 2.08 1.2 4.213 1.84 6.4h.4c.533-2.08 1.067-4.187 1.6-6.32.533-2.133 1.067-4.24 1.6-6.32l6.16-20.8h11.28l-15.52 46.08-5.52 16.72zm46.417-16.88c-2.826 0-5.546-.533-8.16-1.6a20.904 20.904 0 0 1-6.8-4.56c-1.973-2.027-3.573-4.48-4.8-7.36-1.173-2.933-1.76-6.24-1.76-9.92 0-3.733.587-7.067 1.76-10 1.227-2.933 2.827-5.387 4.8-7.36a20.32 20.32 0 0 1 6.8-4.64 21.397 21.397 0 0 1 8.16-1.6c2.774 0 5.467.533 8.08 1.6a20.102 20.102 0 0 1 6.88 4.64c1.974 1.973 3.547 4.427 4.72 7.36 1.227 2.933 1.84 6.267 1.84 10 0 3.68-.613 6.987-1.84 9.92-1.173 2.88-2.746 5.333-4.72 7.36a20.67 20.67 0 0 1-6.88 4.56 21.187 21.187 0 0 1-8.08 1.6zm0-9.6c3.04 0 5.387-1.253 7.04-3.76 1.654-2.507 2.48-5.867 2.48-10.08 0-4.267-.826-7.653-2.48-10.16-1.653-2.56-4-3.84-7.04-3.84s-5.386 1.28-7.04 3.84c-1.653 2.507-2.48 5.893-2.48 10.16 0 4.213.827 7.573 2.48 10.08 1.654 2.507 4 3.76 7.04 3.76zm43.839 9.6c-4.8 0-8.294-1.573-10.48-4.72-2.187-3.2-3.28-7.6-3.28-13.2v-28h11.76v26.48c0 3.52.48 5.973 1.44 7.36 1.013 1.333 2.613 2 4.8 2 1.866 0 3.466-.427 4.8-1.28 1.333-.853 2.773-2.293 4.32-4.32V35.2h11.76V80h-9.6l-.88-6.4h-.32c-1.92 2.293-4.027 4.133-6.32 5.52-2.24 1.333-4.907 2-8 2zm50.022-45.92h11.76l4.88 22.16c.427 2.187.8 4.347 1.12 6.48.32 2.133.693 4.32 1.12 6.56h.32c.427-2.24.853-4.427 1.28-6.56a87.947 87.947 0 0 1 1.52-6.48l5.36-22.16h10.48l5.6 22.16a159.846 159.846 0 0 1 1.44 6.48c.427 2.133.88 4.32 1.36 6.56h.4c.427-2.24.8-4.427 1.12-6.56.32-2.133.693-4.293 1.12-6.48l4.88-22.16h10.88L783.785 80h-13.84l-4.72-19.52a343.1 343.1 0 0 1-1.36-6.32c-.373-2.08-.773-4.32-1.2-6.72h-.4c-.427 2.4-.827 4.667-1.2 6.8-.373 2.08-.8 4.16-1.28 6.24L755.225 80h-13.44l-11.6-44.8zm91.142 45.92c-2.826 0-5.546-.533-8.16-1.6a20.904 20.904 0 0 1-6.8-4.56c-1.973-2.027-3.573-4.48-4.8-7.36-1.173-2.933-1.76-6.24-1.76-9.92 0-3.733.587-7.067 1.76-10 1.227-2.933 2.827-5.387 4.8-7.36a20.32 20.32 0 0 1 6.8-4.64 21.397 21.397 0 0 1 8.16-1.6c2.774 0 5.467.533 8.08 1.6a20.102 20.102 0 0 1 6.88 4.64c1.974 1.973 3.547 4.427 4.72 7.36 1.227 2.933 1.84 6.267 1.84 10 0 3.68-.613 6.987-1.84 9.92-1.173 2.88-2.746 5.333-4.72 7.36a20.67 20.67 0 0 1-6.88 4.56 21.187 21.187 0 0 1-8.08 1.6zm0-9.6c3.04 0 5.387-1.253 7.04-3.76 1.654-2.507 2.48-5.867 2.48-10.08 0-4.267-.826-7.653-2.48-10.16-1.653-2.56-4-3.84-7.04-3.84s-5.386 1.28-7.04 3.84c-1.653 2.507-2.48 5.893-2.48 10.16 0 4.213.827 7.573 2.48 10.08 1.654 2.507 4 3.76 7.04 3.76zm43.839 9.6c-4.8 0-8.294-1.573-10.48-4.72-2.187-3.2-3.28-7.6-3.28-13.2v-28h11.76v26.48c0 3.52.48 5.973 1.44 7.36 1.013 1.333 2.613 2 4.8 2 1.866 0 3.466-.427 4.8-1.28 1.333-.853 2.773-2.293 4.32-4.32V35.2h11.76V80h-9.6l-.88-6.4h-.32c-1.92 2.293-4.027 4.133-6.32 5.52-2.24 1.333-4.907 2-8 2zM902.023 80V16.16h11.68V80h-11.68zm40.195 1.12c-2.774 0-5.307-.533-7.6-1.6-2.24-1.067-4.16-2.613-5.76-4.64-1.6-2.027-2.827-4.48-3.68-7.36-.854-2.88-1.28-6.16-1.28-9.84 0-3.68.506-6.96 1.52-9.84 1.066-2.933 2.48-5.413 4.24-7.44 1.76-2.027 3.76-3.573 6-4.64 2.293-1.12 4.64-1.68 7.04-1.68 2.56 0 4.693.453 6.4 1.36 1.706.853 3.36 2.027 4.96 3.52l-.48-7.04V16.16h11.76V80h-9.52l-.96-4.64h-.24a24.48 24.48 0 0 1-5.68 4.08c-2.134 1.12-4.374 1.68-6.72 1.68zm3.04-9.68a9.23 9.23 0 0 0 4.32-1.04c1.386-.693 2.72-1.893 4-3.6V47.12c-1.387-1.227-2.774-2.08-4.16-2.56-1.387-.533-2.774-.8-4.16-.8-1.28 0-2.48.293-3.6.88s-2.107 1.467-2.96 2.64c-.8 1.173-1.467 2.613-2 4.32-.48 1.707-.72 3.68-.72 5.92 0 4.693.8 8.187 2.4 10.48 1.6 2.293 3.893 3.44 6.88 3.44zM25.76 161.12c-3.147 0-6.08-.533-8.8-1.6a21.367 21.367 0 0 1-7.04-4.56c-1.973-2.027-3.547-4.48-4.72-7.36-1.12-2.933-1.68-6.24-1.68-9.92 0-3.627.587-6.88 1.76-9.76 1.173-2.933 2.72-5.413 4.64-7.44 1.973-2.08 4.213-3.653 6.72-4.72 2.507-1.12 5.093-1.68 7.76-1.68 3.093 0 5.787.533 8.08 1.6 2.347 1.067 4.293 2.56 5.84 4.48 1.6 1.92 2.8 4.187 3.6 6.8.8 2.613 1.2 5.467 1.2 8.56 0 1.067-.053 2.107-.16 3.12-.107.96-.24 1.707-.4 2.24h-27.6c.48 3.68 1.813 6.48 4 8.4 2.24 1.867 5.04 2.8 8.4 2.8 1.867 0 3.6-.267 5.2-.8 1.653-.533 3.28-1.307 4.88-2.32l4 7.2c-2.24 1.547-4.72 2.773-7.44 3.68a26.883 26.883 0 0 1-8.24 1.28zm7.28-28c0-3.04-.693-5.44-2.08-7.2-1.387-1.813-3.52-2.72-6.4-2.72-2.347 0-4.453.853-6.32 2.56-1.867 1.653-3.013 4.107-3.44 7.36h18.24zm26.674 3.52-13.12-21.44h12.64l4.48 8a480.409 480.409 0 0 0 4 7.52h.32a269.38 269.38 0 0 0 1.6-3.76c.587-1.28 1.147-2.533 1.68-3.76l3.76-8h12.16L74.114 138l14 22h-12.64l-4.96-8.16a146.611 146.611 0 0 1-2.16-4 92.531 92.531 0 0 0-2.16-3.92h-.4c-.64 1.28-1.28 2.587-1.92 3.92a1742.6 1742.6 0 0 1-1.84 4l-4.16 8.16h-12.16l14-23.36zm35.162-21.44h9.6l.8 4.64h.32c1.867-1.6 3.92-2.96 6.16-4.08 2.294-1.12 4.64-1.68 7.04-1.68 2.774 0 5.227.56 7.36 1.68 2.187 1.067 4.027 2.587 5.52 4.56 1.547 1.973 2.72 4.373 3.52 7.2.8 2.827 1.2 5.947 1.2 9.36 0 3.84-.533 7.28-1.6 10.32-1.066 2.987-2.48 5.52-4.24 7.6-1.76 2.027-3.786 3.6-6.08 4.72-2.293 1.067-4.666 1.6-7.12 1.6-1.973 0-3.893-.427-5.76-1.28-1.866-.853-3.653-2.053-5.36-3.6l.32 7.36v13.6h-11.68v-62zm19.84 36.24c2.72 0 4.987-1.173 6.8-3.52 1.867-2.347 2.8-5.973 2.8-10.88 0-4.32-.72-7.6-2.16-9.84-1.386-2.293-3.626-3.44-6.72-3.44-1.546 0-3.04.4-4.48 1.2-1.386.747-2.853 1.893-4.4 3.44v19.68c1.44 1.227 2.854 2.107 4.24 2.64 1.387.48 2.694.72 3.92.72zm50.285 9.68c-3.147 0-6.08-.533-8.8-1.6a21.356 21.356 0 0 1-7.04-4.56c-1.974-2.027-3.547-4.48-4.72-7.36-1.12-2.933-1.68-6.24-1.68-9.92 0-3.627.586-6.88 1.76-9.76 1.173-2.933 2.72-5.413 4.64-7.44 1.973-2.08 4.213-3.653 6.72-4.72 2.506-1.12 5.093-1.68 7.76-1.68 3.093 0 5.786.533 8.08 1.6 2.346 1.067 4.293 2.56 5.84 4.48 1.6 1.92 2.8 4.187 3.6 6.8.8 2.613 1.2 5.467 1.2 8.56 0 1.067-.054 2.107-.16 3.12-.107.96-.24 1.707-.4 2.24h-27.6c.48 3.68 1.813 6.48 4 8.4 2.24 1.867 5.04 2.8 8.4 2.8 1.866 0 3.6-.267 5.2-.8 1.653-.533 3.28-1.307 4.88-2.32l4 7.2c-2.24 1.547-4.72 2.773-7.44 3.68a26.888 26.888 0 0 1-8.24 1.28zm7.28-28c0-3.04-.694-5.44-2.08-7.2-1.387-1.813-3.52-2.72-6.4-2.72-2.347 0-4.454.853-6.32 2.56-1.867 1.653-3.014 4.107-3.44 7.36h18.24zm18.964-17.92h9.6l.8 7.92h.32c1.653-2.933 3.6-5.173 5.84-6.72 2.24-1.547 4.533-2.32 6.88-2.32 1.227 0 2.24.107 3.04.32.8.16 1.547.373 2.24.64l-2.08 10.16a11.476 11.476 0 0 0-2.24-.56 15.895 15.895 0 0 0-2.4-.16c-1.76 0-3.6.667-5.52 2-1.92 1.28-3.52 3.547-4.8 6.8V160h-11.68v-44.8zm34.044 0h11.68V160h-11.68v-44.8zm5.92-7.2c-2.027 0-3.707-.587-5.04-1.76-1.334-1.227-2-2.773-2-4.64 0-1.92.666-3.467 2-4.64 1.333-1.173 3.013-1.76 5.04-1.76 2.026 0 3.68.587 4.96 1.76 1.333 1.173 2 2.72 2 4.64 0 1.867-.667 3.413-2 4.64-1.28 1.173-2.934 1.76-4.96 1.76zm37.017 53.12c-3.147 0-6.08-.533-8.8-1.6a21.356 21.356 0 0 1-7.04-4.56c-1.974-2.027-3.547-4.48-4.72-7.36-1.12-2.933-1.68-6.24-1.68-9.92 0-3.627.586-6.88 1.76-9.76 1.173-2.933 2.72-5.413 4.64-7.44 1.973-2.08 4.213-3.653 6.72-4.72 2.506-1.12 5.093-1.68 7.76-1.68 3.093 0 5.786.533 8.08 1.6 2.346 1.067 4.293 2.56 5.84 4.48 1.6 1.92 2.8 4.187 3.6 6.8.8 2.613 1.2 5.467 1.2 8.56 0 1.067-.054 2.107-.16 3.12-.107.96-.24 1.707-.4 2.24h-27.6c.48 3.68 1.813 6.48 4 8.4 2.24 1.867 5.04 2.8 8.4 2.8 1.866 0 3.6-.267 5.2-.8 1.653-.533 3.28-1.307 4.88-2.32l4 7.2c-2.24 1.547-4.72 2.773-7.44 3.68a26.888 26.888 0 0 1-8.24 1.28zm7.28-28c0-3.04-.694-5.44-2.08-7.2-1.387-1.813-3.52-2.72-6.4-2.72-2.347 0-4.454.853-6.32 2.56-1.867 1.653-3.014 4.107-3.44 7.36h18.24zm18.964-17.92h9.6l.8 5.92h.32a34.242 34.242 0 0 1 6.48-4.96c2.347-1.387 5.04-2.08 8.08-2.08 4.853 0 8.373 1.6 10.56 4.8 2.187 3.147 3.28 7.547 3.28 13.2V160h-11.76v-26.48c0-3.467-.507-5.893-1.52-7.28-.96-1.387-2.56-2.08-4.8-2.08-1.867 0-3.467.427-4.8 1.28-1.333.853-2.853 2.107-4.56 3.76V160h-11.68v-44.8zm69.49 45.92c-3.093 0-5.973-.533-8.64-1.6-2.667-1.067-4.987-2.587-6.96-4.56-1.92-2.027-3.44-4.48-4.56-7.36-1.12-2.933-1.68-6.24-1.68-9.92 0-3.733.613-7.067 1.84-10 1.28-2.933 2.96-5.387 5.04-7.36 2.08-2.027 4.507-3.573 7.28-4.64 2.773-1.067 5.68-1.6 8.72-1.6 2.773 0 5.227.48 7.36 1.44s4.027 2.133 5.68 3.52l-5.6 7.6c-1.12-.96-2.24-1.68-3.36-2.16-1.067-.533-2.24-.8-3.52-.8-3.413 0-6.187 1.28-8.32 3.84-2.08 2.507-3.12 5.893-3.12 10.16 0 4.213 1.04 7.573 3.12 10.08 2.08 2.507 4.747 3.76 8 3.76 1.6 0 3.147-.32 4.64-.96a17.255 17.255 0 0 0 4.08-2.64l4.64 7.76c-2.133 1.867-4.48 3.253-7.04 4.16-2.56.853-5.093 1.28-7.6 1.28zm39.366 0c-3.147 0-6.08-.533-8.8-1.6a21.356 21.356 0 0 1-7.04-4.56c-1.974-2.027-3.547-4.48-4.72-7.36-1.12-2.933-1.68-6.24-1.68-9.92 0-3.627.586-6.88 1.76-9.76 1.173-2.933 2.72-5.413 4.64-7.44 1.973-2.08 4.213-3.653 6.72-4.72 2.506-1.12 5.093-1.68 7.76-1.68 3.093 0 5.786.533 8.08 1.6 2.346 1.067 4.293 2.56 5.84 4.48 1.6 1.92 2.8 4.187 3.6 6.8.8 2.613 1.2 5.467 1.2 8.56 0 1.067-.054 2.107-.16 3.12-.107.96-.24 1.707-.4 2.24h-27.6c.48 3.68 1.813 6.48 4 8.4 2.24 1.867 5.04 2.8 8.4 2.8 1.866 0 3.6-.267 5.2-.8 1.653-.533 3.28-1.307 4.88-2.32l4 7.2c-2.24 1.547-4.72 2.773-7.44 3.68a26.888 26.888 0 0 1-8.24 1.28zm7.28-28c0-3.04-.694-5.44-2.08-7.2-1.387-1.813-3.52-2.72-6.4-2.72-2.347 0-4.454.853-6.32 2.56-1.867 1.653-3.014 4.107-3.44 7.36h18.24zM198.449 47.393V34.26l3.79-3.046V.463h-5.429L178 16.279l1.895 3.415c3.928-.43 11.179-2.317 13.402-3.167v56.918l-13.402 3.888v6.16h22.344V50.438l-3.782-3.039-.008-.007z" fill="#fff"/><path d="m226.069 77.325-13.285-3.843V.462h-8.527V32.02l-3.789 3.038v11.53l3.789 3.038v33.859h21.812v-6.16zM235.564 8.704c-.109-1.34-.984-2.105-2.761-2.105-1.723 0-2.489.656-2.516 1.586-.027 1.011.902 1.586 2.734 1.968l1.641.383c4.266.902 6.152 2.98 6.18 6.016-.028 3.883-3.008 6.07-8.012 6.07-5.113 0-8.422-2.242-8.476-7.11h4.976c.082 1.833 1.367 2.817 3.418 2.817 1.777 0 2.734-.738 2.762-1.777-.028-.957-.821-1.504-3.035-1.996l-1.996-.438c-3.473-.766-5.606-2.488-5.606-5.55-.027-3.747 3.281-6.262 7.93-6.262 4.758 0 7.738 2.543 7.765 6.398h-5.004zm5.996-1.914V2.58h17.063v4.21h-5.961v15.586h-5.141V6.79h-5.961z" fill="#fff"/></svg>